OctagonVariable-Top.ufo
<glyph name="quotedbl" format="2">
  <advance width="222"/>
  <unicode hex="0022"/>
  <outline>
    <contour>
      <point x="30" y="343" type="line"/>
      <point x="102" y="343" type="line"/>
      <point x="102" y="356" type="line"/>
      <point x="30" y="356" type="line"/>
    </contour>
    <contour>
      <point x="41" y="343" type="line"/>
      <point x="70" y="498" type="line"/>
      <point x="59" y="514" type="line"/>
      <point x="30" y="354" type="line"/>
    </contour>
    <contour>
      <point x="90" y="343" type="line"/>
      <point x="102" y="354" type="line"/>
      <point x="72" y="515" type="line"/>
      <point x="61" y="498" type="line"/>
    </contour>
    <contour>
      <point x="30" y="343" type="line"/>
      <point x="44" y="343" type="line"/>
      <point x="44" y="555" type="line"/>
      <point x="30" y="555" type="line"/>
    </contour>
    <contour>
      <point x="59" y="502" type="line"/>
      <point x="73" y="502" type="line"/>
      <point x="73" y="515" type="line"/>
      <point x="59" y="515" type="line"/>
    </contour>
    <contour>
      <point x="88" y="343" type="line"/>
      <point x="102" y="343" type="line"/>
      <point x="102" y="555" type="line"/>
      <point x="88" y="555" type="line"/>
    </contour>
    <contour>
      <point x="60" y="505" type="line"/>
      <point x="68" y="519" type="line"/>
      <point x="41" y="555" type="line"/>
      <point x="30" y="545" type="line"/>
    </contour>
    <contour>
      <point x="32" y="541" type="line"/>
      <point x="102" y="541" type="line"/>
      <point x="102" y="555" type="line"/>
      <point x="32" y="555" type="line"/>
    </contour>
    <contour>
      <point x="72" y="505" type="line"/>
      <point x="101" y="545" type="line"/>
      <point x="90" y="555" type="line"/>
      <point x="63" y="519" type="line"/>
    </contour>
    <contour>
      <point x="120" y="343" type="line"/>
      <point x="192" y="343" type="line"/>
      <point x="192" y="356" type="line"/>
      <point x="120" y="356" type="line"/>
    </contour>
    <contour>
      <point x="131" y="343" type="line"/>
      <point x="160" y="498" type="line"/>
      <point x="149" y="514" type="line"/>
      <point x="120" y="354" type="line"/>
    </contour>
    <contour>
      <point x="180" y="343" type="line"/>
      <point x="192" y="354" type="line"/>
      <point x="162" y="515" type="line"/>
      <point x="151" y="498" type="line"/>
    </contour>
    <contour>
      <point x="120" y="343" type="line"/>
      <point x="134" y="343" type="line"/>
      <point x="134" y="555" type="line"/>
      <point x="120" y="555" type="line"/>
    </contour>
    <contour>
      <point x="149" y="502" type="line"/>
      <point x="163" y="502" type="line"/>
      <point x="163" y="515" type="line"/>
      <point x="149" y="515" type="line"/>
    </contour>
    <contour>
      <point x="178" y="343" type="line"/>
      <point x="192" y="343" type="line"/>
      <point x="192" y="555" type="line"/>
      <point x="178" y="555" type="line"/>
    </contour>
    <contour>
      <point x="151" y="505" type="line"/>
      <point x="158" y="519" type="line"/>
      <point x="131" y="555" type="line"/>
      <point x="120" y="545" type="line"/>
    </contour>
    <contour>
      <point x="122" y="541" type="line"/>
      <point x="192" y="541" type="line"/>
      <point x="192" y="555" type="line"/>
      <point x="122" y="555" type="line"/>
    </contour>
    <contour>
      <point x="162" y="505" type="line"/>
      <point x="191" y="545" type="line"/>
      <point x="180" y="555" type="line"/>
      <point x="153" y="519" type="line"/>
    </contour>
  </outline>
</glyph>
<glyph name="numbersign" format="2">
  <advance width="585"/>
  <unicode hex="0023"/>
  <outline>
    <contour>
      <point x="192" y="392" type="line"/>
      <point x="209" y="392" type="line"/>
      <point x="272" y="550" type="line"/>
      <point x="255" y="550" type="line"/>
    </contour>
    <contour>
      <point x="272" y="392" type="line"/>
      <point x="290" y="392" type="line"/>
      <point x="353" y="550" type="line"/>
      <point x="335" y="550" type="line"/>
    </contour>
    <contour>
      <point x="277" y="514" type="line"/>
      <point x="297" y="521" type="line"/>
      <point x="266" y="550" type="line"/>
      <point x="252" y="535" type="line"/>
    </contour>
    <contour>
      <point x="286" y="505" type="line"/>
      <point x="346" y="534" type="line"/>
      <point x="340" y="550" type="line"/>
      <point x="282" y="520" type="line"/>
    </contour>
    <contour>
      <point x="255" y="530" type="line"/>
      <point x="346" y="530" type="line"/>
      <point x="346" y="550" type="line"/>
      <point x="255" y="550" type="line"/>
    </contour>
    <contour>
      <point x="136" y="135" type="line"/>
      <point x="124" y="120" type="line"/>
      <point x="141" y="50" type="line"/>
      <point x="155" y="65" type="line"/>
    </contour>
    <contour>
      <point x="131" y="136" type="line"/>
      <point x="61" y="66" type="line"/>
      <point x="67" y="50" type="line"/>
      <point x="138" y="121" type="line"/>
    </contour>
    <contour>
      <point x="153" y="70" type="line"/>
      <point x="62" y="70" type="line"/>
      <point x="62" y="50" type="line"/>
      <point x="153" y="50" type="line"/>
    </contour>
    <contour>
      <point x="230" y="392" type="line"/>
      <point x="247" y="392" type="line"/>
      <point x="299" y="523" type="line"/>
      <point x="283" y="529" type="line"/>
    </contour>
    <contour>
      <point x="341" y="278" type="line"/>
      <point x="358" y="278" type="line"/>
      <point x="465" y="550" type="line"/>
      <point x="448" y="550" type="line"/>
    </contour>
    <contour>
      <point x="421" y="278" type="line"/>
      <point x="439" y="278" type="line"/>
      <point x="546" y="550" type="line"/>
      <point x="528" y="550" type="line"/>
    </contour>
    <contour>
      <point x="478" y="506" type="line"/>
      <point x="490" y="521" type="line"/>
      <point x="459" y="550" type="line"/>
      <point x="445" y="535" type="line"/>
    </contour>
    <contour>
      <point x="483" y="505" type="line"/>
      <point x="539" y="534" type="line"/>
      <point x="533" y="550" type="line"/>
      <point x="477" y="520" type="line"/>
    </contour>
    <contour>
      <point x="448" y="530" type="line"/>
      <point x="539" y="530" type="line"/>
      <point x="539" y="550" type="line"/>
      <point x="448" y="550" type="line"/>
    </contour>
    <contour>
      <point x="326" y="135" type="line"/>
      <point x="314" y="120" type="line"/>
      <point x="331" y="50" type="line"/>
      <point x="345" y="65" type="line"/>
    </contour>
    <contour>
      <point x="321" y="136" type="line"/>
      <point x="251" y="66" type="line"/>
      <point x="257" y="50" type="line"/>
      <point x="328" y="121" type="line"/>
    </contour>
    <contour>
      <point x="343" y="70" type="line"/>
      <point x="252" y="70" type="line"/>
      <point x="252" y="50" type="line"/>
      <point x="343" y="50" type="line"/>
    </contour>
    <contour>
      <point x="379" y="278" type="line"/>
      <point x="397" y="278" type="line"/>
      <point x="494" y="523" type="line"/>
      <point x="479" y="529" type="line"/>
    </contour>
    <contour>
      <point x="22" y="194" type="line"/>
      <point x="22" y="285" type="line"/>
      <point x="5" y="285" type="line"/>
      <point x="5" y="194" type="line"/>
    </contour>
    <contour>
      <point x="53" y="245" type="line"/>
      <point x="138" y="245" type="line"/>
      <point x="144" y="262" type="line"/>
      <point x="53" y="262" type="line"/>
    </contour>
    <contour>
      <point x="5" y="268" type="line"/>
      <point x="150" y="268" type="line"/>
      <point x="156" y="285" type="line"/>
      <point x="5" y="285" type="line"/>
    </contour>
    <contour>
      <point x="71" y="259" type="line"/>
      <point x="21" y="285" type="line"/>
      <point x="7" y="275" type="line"/>
      <point x="58" y="249" type="line"/>
    </contour>
    <contour>
      <point x="5" y="211" type="line"/>
      <point x="5" y="194" type="line"/>
      <point x="123" y="194" type="line"/>
      <point x="129" y="211" type="line"/>
    </contour>
    <contour>
      <point x="71" y="248" type="line"/>
      <point x="58" y="258" type="line"/>
      <point x="7" y="204" type="line"/>
      <point x="21" y="194" type="line"/>
    </contour>
    <contour>
      <point x="501" y="285" type="line"/>
      <point x="501" y="194" type="line"/>
      <point x="518" y="194" type="line"/>
      <point x="518" y="285" type="line"/>
    </contour>
    <contour>
      <point x="218" y="245" type="line"/>
      <point x="470" y="245" type="line"/>
      <point x="470" y="262" type="line"/>
      <point x="224" y="262" type="line"/>
    </contour>
    <contour>
      <point x="452" y="248" type="line"/>
      <point x="502" y="194" type="line"/>
      <point x="516" y="204" type="line"/>
      <point x="465" y="258" type="line"/>
    </contour>
    <contour>
      <point x="452" y="259" type="line"/>
      <point x="465" y="249" type="line"/>
      <point x="516" y="275" type="line"/>
      <point x="502" y="285" type="line"/>
    </contour>
    <contour>
      <point x="518" y="285" type="line"/>
      <point x="238" y="285" type="line"/>
      <point x="232" y="268" type="line"/>
      <point x="518" y="268" type="line"/>
    </contour>
    <contour>
      <point x="518" y="211" type="line"/>
      <point x="208" y="211" type="line"/>
      <point x="202" y="194" type="line"/>
      <point x="518" y="194" type="line"/>
    </contour>
    <contour>
      <point x="558" y="396" type="line"/>
      <point x="558" y="305" type="line"/>
      <point x="575" y="305" type="line"/>
      <point x="575" y="396" type="line"/>
    </contour>
    <contour>
      <point x="527" y="373" type="line"/>
      <point x="464" y="373" type="line"/>
      <point x="458" y="356" type="line"/>
      <point x="527" y="356" type="line"/>
    </contour>
    <contour>
      <point x="575" y="322" type="line"/>
      <point x="452" y="322" type="line"/>
      <point x="446" y="305" type="line"/>
      <point x="575" y="305" type="line"/>
    </contour>
    <contour>
      <point x="509" y="359" type="line"/>
      <point x="559" y="305" type="line"/>
      <point x="573" y="315" type="line"/>
      <point x="522" y="369" type="line"/>
    </contour>
    <contour>
      <point x="575" y="379" type="line"/>
      <point x="575" y="396" type="line"/>
      <point x="479" y="396" type="line"/>
      <point x="473" y="379" type="line"/>
    </contour>
    <contour>
      <point x="509" y="370" type="line"/>
      <point x="522" y="360" type="line"/>
      <point x="573" y="386" type="line"/>
      <point x="559" y="396" type="line"/>
    </contour>
    <contour>
      <point x="79" y="305" type="line"/>
      <point x="79" y="396" type="line"/>
      <point x="62" y="396" type="line"/>
      <point x="62" y="305" type="line"/>
    </contour>
    <contour>
      <point x="384" y="373" type="line"/>
      <point x="110" y="373" type="line"/>
      <point x="110" y="356" type="line"/>
      <point x="378" y="356" type="line"/>
    </contour>
    <contour>
      <point x="400" y="396" type="line"/>
      <point x="62" y="396" type="line"/>
      <point x="62" y="379" type="line"/>
      <point x="394" y="379" type="line"/>
    </contour>
    <contour>
      <point x="128" y="370" type="line"/>
      <point x="78" y="396" type="line"/>
      <point x="64" y="386" type="line"/>
      <point x="115" y="360" type="line"/>
    </contour>
    <contour>
      <point x="370" y="322" type="line"/>
      <point x="62" y="322" type="line"/>
      <point x="62" y="305" type="line"/>
      <point x="364" y="305" type="line"/>
    </contour>
    <contour>
      <point x="128" y="359" type="line"/>
      <point x="115" y="369" type="line"/>
      <point x="64" y="315" type="line"/>
      <point x="78" y="305" type="line"/>
    </contour>
    <contour>
      <point x="182" y="314" type="line"/>
      <point x="164" y="314" type="line"/>
      <point x="54" y="50" type="line"/>
      <point x="72" y="50" type="line"/>
    </contour>
    <contour>
      <point x="220" y="314" type="line"/>
      <point x="202" y="314" type="line"/>
      <point x="123" y="125" type="line"/>
      <point x="138" y="114" type="line"/>
    </contour>
    <contour>
      <point x="263" y="314" type="line"/>
      <point x="245" y="314" type="line"/>
      <point x="135" y="50" type="line"/>
      <point x="153" y="50" type="line"/>
    </contour>
    <contour>
      <point x="326" y="198" type="line"/>
      <point x="308" y="198" type="line"/>
      <point x="244" y="50" type="line"/>
      <point x="262" y="50" type="line"/>
    </contour>
    <contour>
      <point x="365" y="198" type="line"/>
      <point x="347" y="198" type="line"/>
      <point x="313" y="125" type="line"/>
      <point x="328" y="114" type="line"/>
    </contour>
    <contour>
      <point x="407" y="198" type="line"/>
      <point x="389" y="198" type="line"/>
      <point x="325" y="50" type="line"/>
      <point x="343" y="50" type="line"/>
    </contour>
  </outline>
</glyph>
<glyph name="hyphen" format="2">
  <advance width="261"/>
  <unicode hex="002D"/>
  <outline>
    <contour>
      <point x="15" y="224" type="line"/>
      <point x="240" y="224" type="line"/>
      <point x="240" y="242" type="line"/>
      <point x="15" y="242" type="line"/>
    </contour>
    <contour>
      <point x="29" y="224" type="line"/>
      <point x="107" y="340" type="line"/>
      <point x="91" y="353" type="line"/>
      <point x="15" y="238" type="line"/>
    </contour>
    <contour>
      <point x="232" y="224" type="line"/>
      <point x="246" y="238" type="line"/>
      <point x="169" y="354" type="line"/>
      <point x="154" y="340" type="line"/>
    </contour>
    <contour>
      <point x="15" y="224" type="line"/>
      <point x="35" y="224" type="line"/>
      <point x="35" y="389" type="line"/>
      <point x="15" y="389" type="line"/>
    </contour>
    <contour>
      <point x="91" y="336" type="line"/>
      <point x="174" y="336" type="line"/>
      <point x="174" y="359" type="line"/>
      <point x="91" y="359" type="line"/>
    </contour>
    <contour>
      <point x="226" y="224" type="line"/>
      <point x="246" y="224" type="line"/>
      <point x="246" y="389" type="line"/>
      <point x="226" y="389" type="line"/>
    </contour>
    <contour>
      <point x="92" y="340" type="line"/>
      <point x="107" y="354" type="line"/>
      <point x="29" y="389" type="line"/>
      <point x="15" y="375" type="line"/>
    </contour>
    <contour>
      <point x="18" y="371" type="line"/>
      <point x="240" y="371" type="line"/>
      <point x="240" y="389" type="line"/>
      <point x="18" y="389" type="line"/>
    </contour>
    <contour>
      <point x="169" y="340" type="line"/>
      <point x="245" y="375" type="line"/>
      <point x="231" y="389" type="line"/>
      <point x="154" y="354" type="line"/>
    </contour>
  </outline>
</glyph>
<glyph name="period" format="2">
  <advance width="224"/>
  <unicode hex="002E"/>
  <outline>
    <contour>
      <point x="15" y="50" type="line"/>
      <point x="209" y="50" type="line"/>
      <point x="209" y="69" type="line"/>
      <point x="15" y="69" type="line"/>
    </contour>
    <contour>
      <point x="30" y="50" type="line"/>
      <point x="116" y="200" type="line"/>
      <point x="104" y="218" type="line"/>
      <point x="15" y="65" type="line"/>
    </contour>
    <contour>
      <point x="194" y="50" type="line"/>
      <point x="209" y="65" type="line"/>
      <point x="119" y="219" type="line"/>
      <point x="107" y="201" type="line"/>
    </contour>
    <contour>
      <point x="15" y="50" type="line"/>
      <point x="34" y="50" type="line"/>
      <point x="34" y="254" type="line"/>
      <point x="15" y="254" type="line"/>
    </contour>
    <contour>
      <point x="104" y="203" type="line"/>
      <point x="120" y="203" type="line"/>
      <point x="120" y="219" type="line"/>
      <point x="104" y="219" type="line"/>
    </contour>
    <contour>
      <point x="190" y="50" type="line"/>
      <point x="209" y="50" type="line"/>
      <point x="209" y="254" type="line"/>
      <point x="190" y="254" type="line"/>
    </contour>
    <contour>
      <point x="105" y="204" type="line"/>
      <point x="117" y="222" type="line"/>
      <point x="30" y="254" type="line"/>
      <point x="15" y="239" type="line"/>
    </contour>
    <contour>
      <point x="19" y="235" type="line"/>
      <point x="209" y="235" type="line"/>
      <point x="209" y="254" type="line"/>
      <point x="19" y="254" type="line"/>
    </contour>
    <contour>
      <point x="119" y="204" type="line"/>
      <point x="208" y="239" type="line"/>
      <point x="193" y="254" type="line"/>
      <point x="107" y="222" type="line"/>
    </contour>
  </outline>
</glyph>
<glyph name="slash" format="2">
  <advance width="352"/>
  <unicode hex="002F"/>
  <outline>
    <contour>
      <point x="18" y="10" type="line"/>
      <point x="271" y="590" type="line"/>
      <point x="254" y="590" type="line"/>
      <point x="0" y="10" type="line"/>
    </contour>
    <contour>
      <point x="99" y="10" type="line"/>
      <point x="352" y="590" type="line"/>
      <point x="334" y="590" type="line"/>
      <point x="81" y="10" type="line"/>
    </contour>
    <contour>
      <point x="281" y="545" type="line"/>
      <point x="293" y="560" type="line"/>
      <point x="265" y="590" type="line"/>
      <point x="251" y="575" type="line"/>
    </contour>
    <contour>
      <point x="286" y="544" type="line"/>
      <point x="345" y="574" type="line"/>
      <point x="339" y="590" type="line"/>
      <point x="280" y="559" type="line"/>
    </contour>
    <contour>
      <point x="254" y="570" type="line"/>
      <point x="338" y="570" type="line"/>
      <point x="345" y="590" type="line"/>
      <point x="254" y="590" type="line"/>
    </contour>
    <contour>
      <point x="83" y="95" type="line"/>
      <point x="71" y="80" type="line"/>
      <point x="87" y="10" type="line"/>
      <point x="101" y="25" type="line"/>
    </contour>
    <contour>
      <point x="78" y="96" type="line"/>
      <point x="7" y="26" type="line"/>
      <point x="13" y="10" type="line"/>
      <point x="85" y="81" type="line"/>
    </contour>
    <contour>
      <point x="99" y="30" type="line"/>
      <point x="8" y="30" type="line"/>
      <point x="8" y="10" type="line"/>
      <point x="99" y="10" type="line"/>
    </contour>
    <contour>
      <point x="85" y="74" type="line"/>
      <point x="297" y="562" type="line"/>
      <point x="282" y="568" type="line"/>
      <point x="70" y="85" type="line"/>
    </contour>
  </outline>
</glyph>
<glyph name="zero" format="2">
  <advance width="480"/>
  <unicode hex="0030"/>
  <outline>
    <contour>
      <point x="456" y="396" type="line"/>
      <point x="470" y="410" type="line"/>
      <point x="340" y="550" type="line"/>
      <point x="326" y="536" type="line"/>
    </contour>
    <contour>
      <point x="140" y="50" type="line"/>
      <point x="154" y="64" type="line"/>
      <point x="24" y="203" type="line"/>
      <point x="10" y="189" type="line"/>
    </contour>
    <contour>
      <point x="156" y="56" type="line"/>
      <point x="188" y="202" type="line"/>
      <point x="171" y="208" type="line"/>
      <point x="139" y="62" type="line"/>
    </contour>
    <contour>
      <point x="26" y="186" type="line"/>
      <point x="125" y="258" type="line"/>
      <point x="119" y="276" type="line"/>
      <point x="20" y="204" type="line"/>
    </contour>
    <contour>
      <point x="140" y="50" type="line"/>
      <point x="340" y="50" type="line"/>
      <point x="340" y="68" type="line"/>
      <point x="140" y="68" type="line"/>
    </contour>
    <contour>
      <point x="175" y="191" type="line"/>
      <point x="189" y="205" type="line"/>
      <point x="124" y="278" type="line"/>
      <point x="110" y="264" type="line"/>
    </contour>
    <contour>
      <point x="186" y="197" type="line"/>
      <point x="228" y="222" type="line"/>
      <point x="212" y="233" type="line"/>
      <point x="170" y="207" type="line"/>
    </contour>
    <contour>
      <point x="175" y="189" type="line"/>
      <point x="305" y="189" type="line"/>
      <point x="305" y="207" type="line"/>
      <point x="175" y="207" type="line"/>
    </contour>
    <contour>
      <point x="10" y="189" type="line"/>
      <point x="30" y="189" type="line"/>
      <point x="30" y="410" type="line"/>
      <point x="10" y="410" type="line"/>
    </contour>
    <contour>
      <point x="127" y="260" type="line"/>
      <point x="216" y="225" type="line"/>
      <point x="210" y="246" type="line"/>
      <point x="121" y="282" type="line"/>
    </contour>
    <contour>
      <point x="324" y="56" type="line"/>
      <point x="341" y="62" type="line"/>
      <point x="309" y="208" type="line"/>
      <point x="292" y="202" type="line"/>
    </contour>
    <contour>
      <point x="212" y="219" type="line"/>
      <point x="229" y="231" type="line"/>
      <point x="218" y="244" type="line"/>
      <point x="200" y="236" type="line"/>
    </contour>
    <contour>
      <point x="212" y="219" type="line"/>
      <point x="268" y="219" type="line"/>
      <point x="268" y="237" type="line"/>
      <point x="212" y="237" type="line"/>
    </contour>
    <contour>
      <point x="294" y="197" type="line"/>
      <point x="310" y="207" type="line"/>
      <point x="268" y="233" type="line"/>
      <point x="252" y="222" type="line"/>
    </contour>
    <contour>
      <point x="110" y="265" type="line"/>
      <point x="130" y="265" type="line"/>
      <point x="130" y="435" type="line"/>
      <point x="110" y="435" type="line"/>
    </contour>
    <contour>
      <point x="268" y="219" type="line"/>
      <point x="280" y="236" type="line"/>
      <point x="262" y="244" type="line"/>
      <point x="251" y="231" type="line"/>
    </contour>
    <contour>
      <point x="305" y="191" type="line"/>
      <point x="370" y="264" type="line"/>
      <point x="356" y="278" type="line"/>
      <point x="291" y="205" type="line"/>
    </contour>
    <contour>
      <point x="340" y="50" type="line"/>
      <point x="470" y="189" type="line"/>
      <point x="456" y="203" type="line"/>
      <point x="326" y="64" type="line"/>
    </contour>
    <contour>
      <point x="353" y="260" type="line"/>
      <point x="359" y="282" type="line"/>
      <point x="270" y="246" type="line"/>
      <point x="264" y="225" type="line"/>
    </contour>
    <contour>
      <point x="200" y="236" type="line"/>
      <point x="220" y="236" type="line"/>
      <point x="220" y="373" type="line"/>
      <point x="200" y="373" type="line"/>
    </contour>
    <contour>
      <point x="119" y="423" type="line"/>
      <point x="125" y="443" type="line"/>
      <point x="26" y="415" type="line"/>
      <point x="20" y="395" type="line"/>
    </contour>
    <contour>
      <point x="454" y="186" type="line"/>
      <point x="460" y="204" type="line"/>
      <point x="361" y="276" type="line"/>
      <point x="355" y="258" type="line"/>
    </contour>
    <contour>
      <point x="260" y="236" type="line"/>
      <point x="280" y="236" type="line"/>
      <point x="280" y="373" type="line"/>
      <point x="260" y="373" type="line"/>
    </contour>
    <contour>
      <point x="210" y="357" type="line"/>
      <point x="216" y="375" type="line"/>
      <point x="127" y="439" type="line"/>
      <point x="121" y="421" type="line"/>
    </contour>
    <contour>
      <point x="24" y="396" type="line"/>
      <point x="154" y="536" type="line"/>
      <point x="140" y="550" type="line"/>
      <point x="10" y="410" type="line"/>
    </contour>
    <contour>
      <point x="124" y="421" type="line"/>
      <point x="189" y="504" type="line"/>
      <point x="175" y="518" type="line"/>
      <point x="110" y="435" type="line"/>
    </contour>
    <contour>
      <point x="218" y="365" type="line"/>
      <point x="229" y="402" type="line"/>
      <point x="212" y="414" type="line"/>
      <point x="200" y="373" type="line"/>
    </contour>
    <contour>
      <point x="350" y="265" type="line"/>
      <point x="370" y="265" type="line"/>
      <point x="370" y="435" type="line"/>
      <point x="350" y="435" type="line"/>
    </contour>
    <contour>
      <point x="212" y="396" type="line"/>
      <point x="228" y="407" type="line"/>
      <point x="186" y="512" type="line"/>
      <point x="170" y="502" type="line"/>
    </contour>
    <contour>
      <point x="212" y="396" type="line"/>
      <point x="268" y="396" type="line"/>
      <point x="268" y="414" type="line"/>
      <point x="212" y="414" type="line"/>
    </contour>
    <contour>
      <point x="262" y="365" type="line"/>
      <point x="280" y="373" type="line"/>
      <point x="268" y="414" type="line"/>
      <point x="251" y="402" type="line"/>
    </contour>
    <contour>
      <point x="172" y="504" type="line"/>
      <point x="190" y="513" type="line"/>
      <point x="150" y="546" type="line"/>
      <point x="140" y="531" type="line"/>
    </contour>
    <contour>
      <point x="270" y="357" type="line"/>
      <point x="359" y="421" type="line"/>
      <point x="353" y="439" type="line"/>
      <point x="264" y="375" type="line"/>
    </contour>
    <contour>
      <point x="175" y="500" type="line"/>
      <point x="305" y="500" type="line"/>
      <point x="305" y="518" type="line"/>
      <point x="175" y="518" type="line"/>
    </contour>
    <contour>
      <point x="450" y="189" type="line"/>
      <point x="470" y="189" type="line"/>
      <point x="470" y="410" type="line"/>
      <point x="450" y="410" type="line"/>
    </contour>
    <contour>
      <point x="268" y="396" type="line"/>
      <point x="307" y="502" type="line"/>
      <point x="291" y="512" type="line"/>
      <point x="252" y="407" type="line"/>
    </contour>
    <contour>
      <point x="356" y="421" type="line"/>
      <point x="370" y="435" type="line"/>
      <point x="305" y="518" type="line"/>
      <point x="291" y="504" type="line"/>
    </contour>
    <contour>
      <point x="140" y="532" type="line"/>
      <point x="340" y="532" type="line"/>
      <point x="340" y="550" type="line"/>
      <point x="140" y="550" type="line"/>
    </contour>
    <contour>
      <point x="361" y="423" type="line"/>
      <point x="460" y="395" type="line"/>
      <point x="454" y="413" type="line"/>
      <point x="355" y="441" type="line"/>
    </contour>
    <contour>
      <point x="309" y="506" type="line"/>
      <point x="345" y="533" type="line"/>
      <point x="329" y="544" type="line"/>
      <point x="288" y="512" type="line"/>
    </contour>
  </outline>
</glyph>
<glyph name="one" format="2">
  <advance width="380"/>
  <unicode hex="0031"/>
  <outline>
    <contour>
      <point x="170" y="50" type="line"/>
      <point x="370" y="50" type="line"/>
      <point x="370" y="70" type="line"/>
      <point x="170" y="70" type="line"/>
    </contour>
    <contour>
      <point x="183" y="50" type="line"/>
      <point x="275" y="212" type="line"/>
      <point x="262" y="225" type="line"/>
      <point x="170" y="63" type="line"/>
    </contour>
    <contour>
      <point x="357" y="50" type="line"/>
      <point x="370" y="63" type="line"/>
      <point x="278" y="225" type="line"/>
      <point x="265" y="212" type="line"/>
    </contour>
    <contour>
      <point x="170" y="53" type="line"/>
      <point x="190" y="53" type="line"/>
      <point x="190" y="350" type="line"/>
      <point x="170" y="350" type="line"/>
    </contour>
    <contour>
      <point x="260" y="210" type="line"/>
      <point x="280" y="210" type="line"/>
      <point x="280" y="510" type="line"/>
      <point x="260" y="510" type="line"/>
    </contour>
    <contour>
      <point x="350" y="50" type="line"/>
      <point x="370" y="50" type="line"/>
      <point x="370" y="550" type="line"/>
      <point x="350" y="550" type="line"/>
    </contour>
    <contour>
      <point x="262" y="495" type="line"/>
      <point x="275" y="508" type="line"/>
      <point x="153" y="550" type="line"/>
      <point x="140" y="537" type="line"/>
    </contour>
    <contour>
      <point x="144" y="530" type="line"/>
      <point x="370" y="530" type="line"/>
      <point x="370" y="550" type="line"/>
      <point x="144" y="550" type="line"/>
    </contour>
    <contour>
      <point x="277" y="495" type="line"/>
      <point x="369" y="537" type="line"/>
      <point x="356" y="550" type="line"/>
      <point x="264" y="508" type="line"/>
    </contour>
    <contour>
      <point x="175" y="534" type="line"/>
      <point x="126" y="457" type="line"/>
      <point x="149" y="457" type="line"/>
      <point x="196" y="527" type="line"/>
    </contour>
    <contour>
      <point x="261" y="508" type="line"/>
      <point x="167" y="340" type="line"/>
      <point x="186" y="334" type="line"/>
      <point x="279" y="501" type="line"/>
    </contour>
    <contour>
      <point x="144" y="550" type="line"/>
      <point x="5" y="334" type="line"/>
      <point x="25" y="334" type="line"/>
      <point x="164" y="545" type="line"/>
    </contour>
    <contour>
      <point x="144" y="468" type="line"/>
      <point x="130" y="454" type="line"/>
      <point x="176" y="341" type="line"/>
      <point x="191" y="354" type="line"/>
    </contour>
    <contour>
      <point x="135" y="471" type="line"/>
      <point x="25" y="353" type="line"/>
      <point x="36" y="338" type="line"/>
      <point x="146" y="455" type="line"/>
    </contour>
    <contour>
      <point x="186" y="354" type="line"/>
      <point x="22" y="354" type="line"/>
      <point x="22" y="334" type="line"/>
      <point x="186" y="334" type="line"/>
    </contour>
  </outline>
</glyph>
<glyph name="two" format="2">
  <advance width="486"/>
  <unicode hex="0032"/>
  <outline>
    <contour>
      <point x="144" y="266" type="line"/>
      <point x="375" y="364" type="line"/>
      <point x="365" y="379" type="line"/>
      <point x="132" y="279" type="line"/>
    </contour>
    <contour>
      <point x="21" y="50" type="line"/>
      <point x="41" y="50" type="line"/>
      <point x="41" y="209" type="line"/>
      <point x="21" y="209" type="line"/>
    </contour>
    <contour>
      <point x="49" y="58" type="line"/>
      <point x="95" y="186" type="line"/>
      <point x="79" y="198" type="line"/>
      <point x="31" y="68" type="line"/>
    </contour>
    <contour>
      <point x="80" y="180" type="line"/>
      <point x="92" y="195" type="line"/>
      <point x="38" y="219" type="line"/>
      <point x="26" y="202" type="line"/>
    </contour>
    <contour>
      <point x="26" y="50" type="line"/>
      <point x="476" y="50" type="line"/>
      <point x="476" y="70" type="line"/>
      <point x="26" y="70" type="line"/>
    </contour>
    <contour>
      <point x="40" y="201" type="line"/>
      <point x="110" y="274" type="line"/>
      <point x="88" y="279" type="line"/>
      <point x="21" y="209" type="line"/>
    </contour>
    <contour>
      <point x="74" y="186" type="line"/>
      <point x="95" y="186" type="line"/>
      <point x="149" y="268" type="line"/>
      <point x="131" y="276" type="line"/>
    </contour>
    <contour>
      <point x="93" y="185" type="line"/>
      <point x="234" y="233" type="line"/>
      <point x="221" y="247" type="line"/>
      <point x="83" y="200" type="line"/>
    </contour>
    <contour>
      <point x="80" y="180" type="line"/>
      <point x="364" y="180" type="line"/>
      <point x="364" y="200" type="line"/>
      <point x="80" y="200" type="line"/>
    </contour>
    <contour>
      <point x="139" y="265" type="line"/>
      <point x="145" y="285" type="line"/>
      <point x="102" y="283" type="line"/>
      <point x="90" y="266" type="line"/>
    </contour>
    <contour>
      <point x="219" y="230" type="line"/>
      <point x="236" y="244" type="line"/>
      <point x="144" y="284" type="line"/>
      <point x="138" y="266" type="line"/>
    </contour>
    <contour>
      <point x="10" y="341" type="line"/>
      <point x="28" y="351" type="line"/>
      <point x="28" y="443" type="line"/>
      <point x="10" y="446" type="line"/>
    </contour>
    <contour>
      <point x="452" y="64" type="line"/>
      <point x="465" y="76" type="line"/>
      <point x="359" y="199" type="line"/>
      <point x="345" y="186" type="line"/>
    </contour>
    <contour>
      <point x="10" y="341" type="line"/>
      <point x="194" y="341" type="line"/>
      <point x="194" y="361" type="line"/>
      <point x="10" y="361" type="line"/>
    </contour>
    <contour>
      <point x="104" y="268" type="line"/>
      <point x="273" y="343" type="line"/>
      <point x="264" y="359" type="line"/>
      <point x="88" y="279" type="line"/>
    </contour>
    <contour>
      <point x="229" y="232" type="line"/>
      <point x="366" y="273" type="line"/>
      <point x="361" y="290" type="line"/>
      <point x="219" y="247" type="line"/>
    </contour>
    <contour>
      <point x="19" y="433" type="line"/>
      <point x="102" y="440" type="line"/>
      <point x="180" y="380" type="line"/>
      <point x="187" y="397" type="line"/>
      <point x="105" y="459" type="line"/>
      <point x="26" y="451" type="line"/>
    </contour>
    <contour>
      <point x="221" y="228" type="line"/>
      <point x="471" y="228" type="line"/>
      <point x="471" y="245" type="line"/>
      <point x="221" y="245" type="line"/>
    </contour>
    <contour>
      <point x="360" y="181" type="line"/>
      <point x="473" y="235" type="line"/>
      <point x="458" y="245" type="line"/>
      <point x="346" y="192" type="line"/>
    </contour>
    <contour>
      <point x="456" y="61" type="line"/>
      <point x="476" y="61" type="line"/>
      <point x="476" y="245" type="line"/>
      <point x="456" y="245" type="line"/>
    </contour>
    <contour>
      <point x="194" y="341" type="line"/>
      <point x="194" y="394" type="line"/>
      <point x="176" y="394" type="line"/>
      <point x="176" y="351" type="line"/>
    </contour>
    <contour>
      <point x="20" y="428" type="line"/>
      <point x="132" y="535" type="line"/>
      <point x="119" y="550" type="line"/>
      <point x="10" y="446" type="line"/>
    </contour>
    <contour>
      <point x="110" y="442" type="line"/>
      <point x="176" y="506" type="line"/>
      <point x="164" y="522" type="line"/>
      <point x="96" y="457" type="line"/>
    </contour>
    <contour>
      <point x="187" y="379" type="line"/>
      <point x="222" y="402" type="line"/>
      <point x="211" y="417" type="line"/>
      <point x="176" y="394" type="line"/>
    </contour>
    <contour>
      <point x="211" y="396" type="line"/>
      <point x="245" y="396" type="line"/>
      <point x="245" y="417" type="line"/>
      <point x="211" y="417" type="line"/>
    </contour>
    <contour>
      <point x="210" y="396" type="line"/>
      <point x="227" y="403" type="line"/>
      <point x="177" y="515" type="line"/>
      <point x="161" y="506" type="line"/>
    </contour>
    <contour>
      <point x="254" y="344" type="line"/>
      <point x="272" y="344" type="line"/>
      <point x="272" y="398" type="line"/>
      <point x="254" y="398" type="line"/>
    </contour>
    <contour>
      <point x="352" y="281" type="line"/>
      <point x="370" y="281" type="line"/>
      <point x="381" y="377" type="line"/>
      <point x="363" y="377" type="line"/>
    </contour>
    <contour>
      <point x="366" y="273" type="line"/>
      <point x="471" y="341" type="line"/>
      <point x="460" y="353" type="line"/>
      <point x="353" y="284" type="line"/>
    </contour>
    <contour>
      <point x="260" y="382" type="line"/>
      <point x="271" y="397" type="line"/>
      <point x="245" y="417" type="line"/>
      <point x="235" y="402" type="line"/>
    </contour>
    <contour>
      <point x="165" y="510" type="line"/>
      <point x="186" y="520" type="line"/>
      <point x="131" y="545" type="line"/>
      <point x="114" y="534" type="line"/>
    </contour>
    <contour>
      <point x="258" y="339" type="line"/>
      <point x="373" y="370" type="line"/>
      <point x="373" y="388" type="line"/>
      <point x="258" y="358" type="line"/>
    </contour>
    <contour>
      <point x="255" y="399" type="line"/>
      <point x="302" y="513" type="line"/>
      <point x="284" y="519" type="line"/>
      <point x="236" y="405" type="line"/>
    </contour>
    <contour>
      <point x="170" y="504" type="line"/>
      <point x="293" y="504" type="line"/>
      <point x="295" y="524" type="line"/>
      <point x="170" y="524" type="line"/>
    </contour>
    <contour>
      <point x="256" y="379" type="line"/>
      <point x="375" y="453" type="line"/>
      <point x="371" y="470" type="line"/>
      <point x="253" y="396" type="line"/>
    </contour>
    <contour>
      <point x="458" y="339" type="line"/>
      <point x="464" y="356" type="line"/>
      <point x="374" y="389" type="line"/>
      <point x="368" y="371" type="line"/>
    </contour>
    <contour>
      <point x="365" y="374" type="line"/>
      <point x="383" y="374" type="line"/>
      <point x="383" y="465" type="line"/>
      <point x="365" y="465" type="line"/>
    </contour>
    <contour>
      <point x="122" y="530" type="line"/>
      <point x="365" y="530" type="line"/>
      <point x="365" y="550" type="line"/>
      <point x="119" y="550" type="line"/>
    </contour>
    <contour>
      <point x="375" y="450" type="line"/>
      <point x="387" y="465" type="line"/>
      <point x="295" y="524" type="line"/>
      <point x="283" y="509" type="line"/>
    </contour>
    <contour>
      <point x="298" y="506" type="line"/>
      <point x="372" y="532" type="line"/>
      <point x="358" y="545" type="line"/>
      <point x="283" y="519" type="line"/>
    </contour>
    <contour>
      <point x="453" y="341" type="line"/>
      <point x="471" y="341" type="line"/>
      <point x="471" y="465" type="line"/>
      <point x="453" y="465" type="line"/>
    </contour>
    <contour>
      <point x="374" y="453" type="line"/>
      <point x="465" y="449" type="line"/>
      <point x="461" y="467" type="line"/>
      <point x="371" y="471" type="line"/>
    </contour>
    <contour>
      <point x="460" y="449" type="line"/>
      <point x="471" y="465" type="line"/>
      <point x="365" y="550" type="line"/>
      <point x="353" y="534" type="line"/>
    </contour>
  </outline>
</glyph>
<glyph name="four" format="2">
  <advance width="495"/>
  <unicode hex="0034"/>
  <outline>
    <contour>
      <point x="332" y="530" type="line"/>
      <point x="100" y="530" type="line"/>
    </contour>
    <contour>
      <point x="218" y="515" type="line"/>
      <point x="116" y="542" type="line"/>
      <point x="97" y="528" type="line"/>
      <point x="199" y="501" type="line"/>
    </contour>
    <contour>
      <point x="314" y="548" type="line"/>
      <point x="199" y="513" type="line"/>
      <point x="215" y="499" type="line"/>
      <point x="328" y="532" type="line"/>
    </contour>
    <contour>
      <point x="319" y="550" type="line"/>
      <point x="180" y="317" type="line"/>
      <point x="203" y="316" type="line"/>
      <point x="342" y="550" type="line"/>
    </contour>
    <contour>
      <point x="245" y="169" type="line"/>
      <point x="15" y="169" type="line"/>
      <point x="15" y="149" type="line"/>
      <point x="245" y="149" type="line"/>
    </contour>
    <contour>
      <point x="337" y="550" type="line"/>
      <point x="100" y="550" type="line"/>
      <point x="100" y="530" type="line"/>
      <point x="330" y="530" type="line"/>
    </contour>
    <contour>
      <point x="100" y="550" type="line"/>
      <point x="10" y="384" type="line"/>
      <point x="28" y="376" type="line"/>
      <point x="118" y="542" type="line"/>
    </contour>
    <contour>
      <point x="465" y="324" type="line"/>
      <point x="465" y="160" type="line"/>
      <point x="485" y="160" type="line"/>
      <point x="485" y="324" type="line"/>
    </contour>
    <contour>
      <point x="240" y="324" type="line"/>
      <point x="186" y="324" type="line"/>
      <point x="186" y="307" type="line"/>
      <point x="250" y="307" type="line"/>
    </contour>
    <contour>
      <point x="200" y="514" type="line"/>
      <point x="103" y="293" type="line"/>
      <point x="122" y="288" type="line"/>
      <point x="223" y="514" type="line"/>
    </contour>
    <contour>
      <point x="10" y="384" type="line"/>
      <point x="10" y="149" type="line"/>
      <point x="30" y="149" type="line"/>
      <point x="30" y="384" type="line"/>
    </contour>
    <contour>
      <point x="103" y="291" type="line"/>
      <point x="17" y="170" type="line"/>
      <point x="31" y="157" type="line"/>
      <point x="118" y="278" type="line"/>
    </contour>
    <contour>
      <point x="229" y="50" type="line"/>
      <point x="429" y="50" type="line"/>
      <point x="429" y="70" type="line"/>
      <point x="229" y="70" type="line"/>
    </contour>
    <contour>
      <point x="242" y="50" type="line"/>
      <point x="334" y="162" type="line"/>
      <point x="321" y="175" type="line"/>
      <point x="229" y="63" type="line"/>
    </contour>
    <contour>
      <point x="416" y="50" type="line"/>
      <point x="429" y="63" type="line"/>
      <point x="337" y="175" type="line"/>
      <point x="324" y="162" type="line"/>
    </contour>
    <contour>
      <point x="229" y="310" type="line"/>
      <point x="249" y="310" type="line"/>
      <point x="249" y="390" type="line"/>
      <point x="229" y="390" type="line"/>
    </contour>
    <contour>
      <point x="319" y="160" type="line"/>
      <point x="339" y="160" type="line"/>
      <point x="339" y="364" type="line"/>
      <point x="319" y="364" type="line"/>
    </contour>
    <contour>
      <point x="321" y="350" type="line"/>
      <point x="334" y="365" type="line"/>
      <point x="247" y="380" type="line"/>
      <point x="234" y="367" type="line"/>
    </contour>
    <contour>
      <point x="234" y="370" type="line"/>
      <point x="429" y="370" type="line"/>
      <point x="429" y="390" type="line"/>
      <point x="234" y="390" type="line"/>
    </contour>
    <contour>
      <point x="336" y="350" type="line"/>
      <point x="429" y="367" type="line"/>
      <point x="416" y="380" type="line"/>
      <point x="323" y="365" type="line"/>
    </contour>
    <contour>
      <point x="244" y="326" type="line"/>
      <point x="228" y="314" type="line"/>
      <point x="319" y="283" type="line"/>
      <point x="333" y="296" type="line"/>
    </contour>
    <contour>
      <point x="318" y="289" type="line"/>
      <point x="229" y="162" type="line"/>
      <point x="244" y="147" type="line"/>
      <point x="332" y="276" type="line"/>
    </contour>
    <contour>
      <point x="187" y="324" type="line"/>
      <point x="101" y="290" type="line"/>
      <point x="116" y="277" type="line"/>
      <point x="202" y="311" type="line"/>
    </contour>
    <contour>
      <point x="431" y="320" type="line"/>
      <point x="431" y="390" type="line"/>
      <point x="411" y="390" type="line"/>
      <point x="411" y="320" type="line"/>
    </contour>
    <contour>
      <point x="418" y="328" type="line"/>
      <point x="325" y="293" type="line"/>
      <point x="339" y="281" type="line"/>
      <point x="431" y="314" type="line"/>
    </contour>
    <contour>
      <point x="338" y="290" type="line"/>
      <point x="324" y="277" type="line"/>
      <point x="416" y="147" type="line"/>
      <point x="431" y="160" type="line"/>
    </contour>
    <contour>
      <point x="485" y="169" type="line"/>
      <point x="416" y="169" type="line"/>
      <point x="416" y="149" type="line"/>
      <point x="485" y="149" type="line"/>
    </contour>
    <contour>
      <point x="481" y="324" type="line"/>
      <point x="420" y="324" type="line"/>
      <point x="410" y="307" type="line"/>
      <point x="481" y="307" type="line"/>
    </contour>
    <contour>
      <point x="229" y="60" type="line"/>
      <point x="249" y="60" type="line"/>
      <point x="249" y="160" type="line"/>
      <point x="229" y="160" type="line"/>
    </contour>
    <contour>
      <point x="431" y="50" type="line"/>
      <point x="431" y="160" type="line"/>
      <point x="411" y="160" type="line"/>
      <point x="411" y="50" type="line"/>
    </contour>
    <contour>
      <point x="463" y="320" type="line"/>
      <point x="405" y="293" type="line"/>
      <point x="418" y="280" type="line"/>
      <point x="478" y="309" type="line"/>
    </contour>
    <contour>
      <point x="419" y="292" type="line"/>
      <point x="404" y="281" type="line"/>
      <point x="465" y="156" type="line"/>
      <point x="478" y="168" type="line"/>
    </contour>
    <contour>
      <point x="110" y="277" type="line"/>
      <point x="419" y="277" type="line"/>
      <point x="419" y="297" type="line"/>
      <point x="110" y="297" type="line"/>
    </contour>
    <contour>
      <point x="104" y="277" type="line"/>
      <point x="119" y="288" type="line"/>
      <point x="27" y="399" type="line"/>
      <point x="20" y="377" type="line"/>
    </contour>
  </outline>
</glyph>
<glyph name="five" format="2">
  <advance width="501"/>
  <unicode hex="0035"/>
  <outline>
    <contour>
      <point x="456" y="540" type="line"/>
      <point x="456" y="560" type="line"/>
      <point x="66" y="560" type="line"/>
      <point x="66" y="540" type="line"/>
    </contour>
    <contour>
      <point x="436" y="414" type="line"/>
      <point x="456" y="414" type="line"/>
      <point x="456" y="549" type="line"/>
      <point x="436" y="549" type="line"/>
    </contour>
    <contour>
      <point x="451" y="414" type="line"/>
      <point x="451" y="434" type="line"/>
      <point x="198" y="434" type="line"/>
      <point x="198" y="414" type="line"/>
    </contour>
    <contour>
      <point x="192" y="415" type="line"/>
      <point x="207" y="426" type="line"/>
      <point x="139" y="523" type="line"/>
      <point x="125" y="511" type="line"/>
    </contour>
    <contour>
      <point x="366" y="509" type="line"/>
      <point x="366" y="529" type="line"/>
      <point x="127" y="529" type="line"/>
      <point x="127" y="509" type="line"/>
    </contour>
    <contour>
      <point x="437" y="422" type="line"/>
      <point x="451" y="434" type="line"/>
      <point x="361" y="528" type="line"/>
      <point x="348" y="516" type="line"/>
    </contour>
    <contour>
      <point x="125" y="511" type="line"/>
      <point x="141" y="523" type="line"/>
      <point x="86" y="550" type="line"/>
      <point x="70" y="538" type="line"/>
    </contour>
    <contour>
      <point x="361" y="510" type="line"/>
      <point x="447" y="540" type="line"/>
      <point x="432" y="552" type="line"/>
      <point x="345" y="523" type="line"/>
    </contour>
    <contour>
      <point x="18" y="268" type="line"/>
      <point x="38" y="268" type="line"/>
      <point x="81" y="560" type="line"/>
      <point x="61" y="560" type="line"/>
    </contour>
    <contour>
      <point x="491" y="291" type="line"/>
      <point x="471" y="290" type="line"/>
      <point x="471" y="144" type="line"/>
      <point x="491" y="144" type="line"/>
    </contour>
    <contour>
      <point x="385" y="320" type="line"/>
      <point x="365" y="320" type="line"/>
      <point x="365" y="214" type="line"/>
      <point x="385" y="214" type="line"/>
    </contour>
    <contour>
      <point x="285" y="228" type="line"/>
      <point x="276" y="212" type="line"/>
      <point x="368" y="212" type="line"/>
      <point x="377" y="228" type="line"/>
    </contour>
    <contour>
      <point x="480" y="160" type="line"/>
      <point x="353" y="65" type="line"/>
      <point x="365" y="49" type="line"/>
      <point x="491" y="144" type="line"/>
    </contour>
    <contour>
      <point x="293" y="272" type="line"/>
      <point x="273" y="272" type="line"/>
      <point x="273" y="214" type="line"/>
      <point x="293" y="214" type="line"/>
    </contour>
    <contour>
      <point x="374" y="229" type="line"/>
      <point x="284" y="170" type="line"/>
      <point x="295" y="155" type="line"/>
      <point x="385" y="214" type="line"/>
    </contour>
    <contour>
      <point x="280" y="230" type="line"/>
      <point x="253" y="208" type="line"/>
      <point x="265" y="192" type="line"/>
      <point x="293" y="214" type="line"/>
    </contour>
    <contour>
      <point x="265" y="213" type="line"/>
      <point x="225" y="213" type="line"/>
      <point x="225" y="192" type="line"/>
      <point x="265" y="192" type="line"/>
    </contour>
    <contour>
      <point x="214" y="233" type="line"/>
      <point x="194" y="233" type="line"/>
      <point x="194" y="225" type="line"/>
      <point x="214" y="225" type="line"/>
    </contour>
    <contour>
      <point x="205" y="240" type="line"/>
      <point x="193" y="225" type="line"/>
      <point x="225" y="192" type="line"/>
      <point x="236" y="207" type="line"/>
    </contour>
    <contour>
      <point x="244" y="200" type="line"/>
      <point x="226" y="206" type="line"/>
      <point x="160" y="168" type="line"/>
      <point x="183" y="162" type="line"/>
    </contour>
    <contour>
      <point x="295" y="175" type="line"/>
      <point x="170" y="175" type="line"/>
      <point x="170" y="155" type="line"/>
      <point x="295" y="155" type="line"/>
    </contour>
    <contour>
      <point x="214" y="248" type="line"/>
      <point x="10" y="248" type="line"/>
      <point x="10" y="228" type="line"/>
      <point x="214" y="228" type="line"/>
    </contour>
    <contour>
      <point x="105" y="224" type="line"/>
      <point x="94" y="209" type="line"/>
      <point x="164" y="158" type="line"/>
      <point x="176" y="174" type="line"/>
    </contour>
    <contour>
      <point x="365" y="69" type="line"/>
      <point x="139" y="69" type="line"/>
      <point x="139" y="49" type="line"/>
      <point x="365" y="49" type="line"/>
    </contour>
    <contour>
      <point x="105" y="210" type="line"/>
      <point x="97" y="226" type="line"/>
      <point x="19" y="174" type="line"/>
      <point x="26" y="158" type="line"/>
    </contour>
    <contour>
      <point x="163" y="169" type="line"/>
      <point x="133" y="60" type="line"/>
      <point x="151" y="54" type="line"/>
      <point x="182" y="163" type="line"/>
    </contour>
    <contour>
      <point x="30" y="238" type="line"/>
      <point x="10" y="238" type="line"/>
      <point x="10" y="163" type="line"/>
      <point x="30" y="163" type="line"/>
    </contour>
    <contour>
      <point x="23" y="178" type="line"/>
      <point x="10" y="163" type="line"/>
      <point x="139" y="49" type="line"/>
      <point x="152" y="64" type="line"/>
    </contour>
    <contour>
      <point x="97" y="226" type="line"/>
      <point x="105" y="210" type="line"/>
      <point x="207" y="223" type="line"/>
      <point x="200" y="239" type="line"/>
    </contour>
    <contour>
      <point x="376" y="229" type="line"/>
      <point x="373" y="210" type="line"/>
      <point x="478" y="141" type="line"/>
      <point x="482" y="160" type="line"/>
    </contour>
    <contour>
      <point x="267" y="208" type="line"/>
      <point x="250" y="202" type="line"/>
      <point x="283" y="160" type="line"/>
      <point x="300" y="166" type="line"/>
    </contour>
    <contour>
      <point x="294" y="173" type="line"/>
      <point x="279" y="163" type="line"/>
      <point x="355" y="58" type="line"/>
      <point x="370" y="68" type="line"/>
    </contour>
    <contour>
      <point x="102" y="367" type="line"/>
      <point x="122" y="367" type="line"/>
      <point x="140" y="529" type="line"/>
      <point x="120" y="529" type="line"/>
    </contour>
    <contour>
      <point x="189" y="399" type="line"/>
      <point x="209" y="399" type="line"/>
      <point x="209" y="434" type="line"/>
      <point x="189" y="434" type="line"/>
    </contour>
    <contour>
      <point x="110" y="384" type="line"/>
      <point x="28" y="283" type="line"/>
      <point x="41" y="271" type="line"/>
      <point x="123" y="372" type="line"/>
    </contour>
    <contour>
      <point x="121" y="380" type="line"/>
      <point x="110" y="367" type="line"/>
      <point x="255" y="273" type="line"/>
      <point x="265" y="286" type="line"/>
    </contour>
    <contour>
      <point x="263" y="268" type="line"/>
      <point x="263" y="286" type="line"/>
      <point x="24" y="286" type="line"/>
      <point x="24" y="268" type="line"/>
    </contour>
    <contour>
      <point x="285" y="256" type="line"/>
      <point x="379" y="306" type="line"/>
      <point x="371" y="323" type="line"/>
      <point x="277" y="273" type="line"/>
    </contour>
    <contour>
      <point x="280" y="259" type="line"/>
      <point x="293" y="272" type="line"/>
      <point x="263" y="286" type="line"/>
      <point x="250" y="273" type="line"/>
    </contour>
    <contour>
      <point x="357" y="393" type="line"/>
      <point x="357" y="413" type="line"/>
      <point x="189" y="413" type="line"/>
      <point x="189" y="393" type="line"/>
    </contour>
    <contour>
      <point x="480" y="275" type="line"/>
      <point x="491" y="291" type="line"/>
      <point x="357" y="413" type="line"/>
      <point x="345" y="397" type="line"/>
    </contour>
    <contour>
      <point x="263" y="268" type="line"/>
      <point x="311" y="372" type="line"/>
      <point x="296" y="380" type="line"/>
      <point x="246" y="275" type="line"/>
    </contour>
    <contour>
      <point x="372" y="305" type="line"/>
      <point x="385" y="320" type="line"/>
      <point x="307" y="387" type="line"/>
      <point x="294" y="371" type="line"/>
    </contour>
    <contour>
      <point x="377" y="307" type="line"/>
      <point x="478" y="273" type="line"/>
      <point x="475" y="294" type="line"/>
      <point x="373" y="328" type="line"/>
    </contour>
    <contour>
      <point x="307" y="387" type="line"/>
      <point x="110" y="387" type="line"/>
      <point x="110" y="367" type="line"/>
      <point x="307" y="367" type="line"/>
    </contour>
    <contour>
      <point x="192" y="409" type="line"/>
      <point x="114" y="390" type="line"/>
      <point x="124" y="376" type="line"/>
      <point x="202" y="395" type="line"/>
    </contour>
    <contour>
      <point x="352" y="409" type="line"/>
      <point x="294" y="382" type="line"/>
      <point x="309" y="371" type="line"/>
      <point x="367" y="399" type="line"/>
    </contour>
  </outline>
</glyph>
<glyph name="seven" format="2">
  <advance width="415"/>
  <unicode hex="0037"/>
  <outline>
    <contour>
      <point x="27" y="50" type="line"/>
      <point x="49" y="50" type="line"/>
      <point x="240" y="352" type="line"/>
      <point x="222" y="362" type="line"/>
    </contour>
    <contour>
      <point x="42" y="50" type="line"/>
      <point x="280" y="50" type="line"/>
      <point x="280" y="70" type="line"/>
      <point x="42" y="70" type="line"/>
    </contour>
    <contour>
      <point x="58" y="57" type="line"/>
      <point x="201" y="211" type="line"/>
      <point x="190" y="227" type="line"/>
      <point x="47" y="72" type="line"/>
    </contour>
    <contour>
      <point x="260" y="56" type="line"/>
      <point x="278" y="67" type="line"/>
      <point x="201" y="222" type="line"/>
      <point x="184" y="211" type="line"/>
    </contour>
    <contour>
      <point x="5" y="352" type="line"/>
      <point x="25" y="352" type="line"/>
      <point x="25" y="539" type="line"/>
      <point x="5" y="539" type="line"/>
    </contour>
    <contour>
      <point x="24" y="357" type="line"/>
      <point x="115" y="501" type="line"/>
      <point x="100" y="512" type="line"/>
      <point x="10" y="369" type="line"/>
    </contour>
    <contour>
      <point x="10" y="352" type="line"/>
      <point x="240" y="352" type="line"/>
      <point x="240" y="372" type="line"/>
      <point x="10" y="372" type="line"/>
    </contour>
    <contour>
      <point x="280" y="50" type="line"/>
      <point x="410" y="395" type="line"/>
      <point x="391" y="399" type="line"/>
      <point x="260" y="59" type="line"/>
    </contour>
    <contour>
      <point x="180" y="211" type="line"/>
      <point x="202" y="211" type="line"/>
      <point x="348" y="496" type="line"/>
      <point x="327" y="501" type="line"/>
    </contour>
    <contour>
      <point x="101" y="499" type="line"/>
      <point x="115" y="514" type="line"/>
      <point x="26" y="546" type="line"/>
      <point x="11" y="532" type="line"/>
    </contour>
    <contour>
      <point x="100" y="496" type="line"/>
      <point x="348" y="496" type="line"/>
      <point x="348" y="516" type="line"/>
      <point x="100" y="516" type="line"/>
    </contour>
    <contour>
      <point x="240" y="352" type="line"/>
      <point x="341" y="496" type="line"/>
      <point x="329" y="511" type="line"/>
      <point x="225" y="367" type="line"/>
    </contour>
    <contour>
      <point x="5" y="530" type="line"/>
      <point x="405" y="530" type="line"/>
      <point x="405" y="550" type="line"/>
      <point x="5" y="550" type="line"/>
    </contour>
    <contour>
      <point x="392" y="381" type="line"/>
      <point x="405" y="396" type="line"/>
      <point x="347" y="509" type="line"/>
      <point x="334" y="494" type="line"/>
    </contour>
    <contour>
      <point x="343" y="496" type="line"/>
      <point x="404" y="531" type="line"/>
      <point x="387" y="543" type="line"/>
      <point x="326" y="509" type="line"/>
    </contour>
    <contour>
      <point x="390" y="395" type="line"/>
      <point x="410" y="395" type="line"/>
      <point x="410" y="550" type="line"/>
      <point x="390" y="550" type="line"/>
    </contour>
  </outline>
</glyph>
<glyph name="nine" format="2">
  <advance width="501"/>
  <unicode hex="0039"/>
  <outline>
    <contour>
      <point x="476" y="296" type="line"/>
      <point x="290" y="49" type="line"/>
      <point x="310" y="49" type="line"/>
      <point x="491" y="287" type="line"/>
    </contour>
    <contour>
      <point x="382" y="550" type="line"/>
      <point x="369" y="535" type="line"/>
      <point x="476" y="423" type="line"/>
      <point x="491" y="436" type="line"/>
    </contour>
    <contour>
      <point x="372" y="545" type="line"/>
      <point x="322" y="508" type="line"/>
      <point x="338" y="499" type="line"/>
      <point x="388" y="537" type="line"/>
    </contour>
    <contour>
      <point x="475" y="441" type="line"/>
      <point x="384" y="447" type="line"/>
      <point x="391" y="429" type="line"/>
      <point x="480" y="424" type="line"/>
    </contour>
    <contour>
      <point x="491" y="436" type="line"/>
      <point x="471" y="436" type="line"/>
      <point x="471" y="281" type="line"/>
      <point x="491" y="287" type="line"/>
    </contour>
    <contour>
      <point x="335" y="514" type="line"/>
      <point x="323" y="498" type="line"/>
      <point x="388" y="429" type="line"/>
      <point x="402" y="443" type="line"/>
    </contour>
    <contour>
      <point x="382" y="550" type="line"/>
      <point x="126" y="550" type="line"/>
      <point x="126" y="530" type="line"/>
      <point x="382" y="530" type="line"/>
    </contour>
    <contour>
      <point x="390" y="448" type="line"/>
      <point x="294" y="386" type="line"/>
      <point x="301" y="370" type="line"/>
      <point x="395" y="430" type="line"/>
    </contour>
    <contour>
      <point x="321" y="507" type="line"/>
      <point x="264" y="405" type="line"/>
      <point x="278" y="395" type="line"/>
      <point x="336" y="496" type="line"/>
    </contour>
    <contour>
      <point x="402" y="443" type="line"/>
      <point x="382" y="443" type="line"/>
      <point x="382" y="334" type="line"/>
      <point x="402" y="334" type="line"/>
    </contour>
    <contour>
      <point x="335" y="514" type="line"/>
      <point x="170" y="514" type="line"/>
      <point x="170" y="494" type="line"/>
      <point x="335" y="494" type="line"/>
    </contour>
    <contour>
      <point x="393" y="349" type="line"/>
      <point x="388" y="330" type="line"/>
      <point x="480" y="280" type="line"/>
      <point x="484" y="298" type="line"/>
    </contour>
    <contour>
      <point x="277" y="412" type="line"/>
      <point x="264" y="397" type="line"/>
      <point x="294" y="370" type="line"/>
      <point x="307" y="384" type="line"/>
    </contour>
    <contour>
      <point x="139" y="543" type="line"/>
      <point x="120" y="535" type="line"/>
      <point x="173" y="498" type="line"/>
      <point x="191" y="506" type="line"/>
    </contour>
    <contour>
      <point x="277" y="412" type="line"/>
      <point x="237" y="412" type="line"/>
      <point x="237" y="391" type="line"/>
      <point x="277" y="391" type="line"/>
    </contour>
    <contour>
      <point x="307" y="384" type="line"/>
      <point x="287" y="384" type="line"/>
      <point x="287" y="348" type="line"/>
      <point x="307" y="348" type="line"/>
    </contour>
    <contour>
      <point x="180" y="507" type="line"/>
      <point x="165" y="497" type="line"/>
      <point x="238" y="395" type="line"/>
      <point x="252" y="405" type="line"/>
    </contour>
    <contour>
      <point x="299" y="363" type="line"/>
      <point x="290" y="346" type="line"/>
      <point x="383" y="333" type="line"/>
      <point x="393" y="349" type="line"/>
    </contour>
    <contour>
      <point x="237" y="412" type="line"/>
      <point x="208" y="384" type="line"/>
      <point x="225" y="374" type="line"/>
      <point x="252" y="399" type="line"/>
    </contour>
    <contour>
      <point x="391" y="348" type="line"/>
      <point x="308" y="294" type="line"/>
      <point x="318" y="280" type="line"/>
      <point x="402" y="334" type="line"/>
    </contour>
    <contour>
      <point x="170" y="514" type="line"/>
      <point x="116" y="455" type="line"/>
      <point x="129" y="443" type="line"/>
      <point x="183" y="501" type="line"/>
    </contour>
    <contour>
      <point x="291" y="361" type="line"/>
      <point x="266" y="334" type="line"/>
      <point x="278" y="319" type="line"/>
      <point x="307" y="348" type="line"/>
    </contour>
    <contour>
      <point x="131" y="463" type="line"/>
      <point x="123" y="445" type="line"/>
      <point x="214" y="371" type="line"/>
      <point x="222" y="388" type="line"/>
    </contour>
    <contour>
      <point x="126" y="550" type="line"/>
      <point x="10" y="455" type="line"/>
      <point x="21" y="439" type="line"/>
      <point x="138" y="534" type="line"/>
    </contour>
    <contour>
      <point x="228" y="384" type="line"/>
      <point x="208" y="384" type="line"/>
      <point x="208" y="347" type="line"/>
      <point x="228" y="347" type="line"/>
    </contour>
    <contour>
      <point x="280" y="336" type="line"/>
      <point x="266" y="326" type="line"/>
      <point x="313" y="286" type="line"/>
      <point x="329" y="295" type="line"/>
    </contour>
    <contour>
      <point x="278" y="340" type="line"/>
      <point x="238" y="340" type="line"/>
      <point x="238" y="319" type="line"/>
      <point x="278" y="319" type="line"/>
    </contour>
    <contour>
      <point x="222" y="361" type="line"/>
      <point x="208" y="347" type="line"/>
      <point x="238" y="319" type="line"/>
      <point x="251" y="335" type="line"/>
    </contour>
    <contour>
      <point x="21" y="460" type="line"/>
      <point x="17" y="442" type="line"/>
      <point x="124" y="442" type="line"/>
      <point x="129" y="461" type="line"/>
    </contour>
    <contour>
      <point x="318" y="300" type="line"/>
      <point x="197" y="300" type="line"/>
      <point x="197" y="280" type="line"/>
      <point x="318" y="280" type="line"/>
    </contour>
    <contour>
      <point x="236" y="336" type="line"/>
      <point x="190" y="297" type="line"/>
      <point x="204" y="286" type="line"/>
      <point x="252" y="325" type="line"/>
    </contour>
    <contour>
      <point x="214" y="362" type="line"/>
      <point x="126" y="346" type="line"/>
      <point x="133" y="329" type="line"/>
      <point x="223" y="346" type="line"/>
    </contour>
    <contour>
      <point x="136" y="455" type="line"/>
      <point x="116" y="455" type="line"/>
      <point x="116" y="329" type="line"/>
      <point x="136" y="329" type="line"/>
    </contour>
    <contour>
      <point x="384" y="342" type="line"/>
      <point x="232" y="121" type="line"/>
      <point x="251" y="115" type="line"/>
      <point x="401" y="335" type="line"/>
    </contour>
    <contour>
      <point x="306" y="296" type="line"/>
      <point x="219" y="199" type="line"/>
      <point x="252" y="207" type="line"/>
      <point x="318" y="280" type="line"/>
    </contour>
    <contour>
      <point x="128" y="344" type="line"/>
      <point x="116" y="329" type="line"/>
      <point x="197" y="280" type="line"/>
      <point x="209" y="295" type="line"/>
    </contour>
    <contour>
      <point x="30" y="455" type="line"/>
      <point x="10" y="455" type="line"/>
      <point x="10" y="288" type="line"/>
      <point x="30" y="288" type="line"/>
    </contour>
    <contour>
      <point x="191" y="295" type="line"/>
      <point x="129" y="215" type="line"/>
      <point x="143" y="204" type="line"/>
      <point x="207" y="286" type="line"/>
    </contour>
    <contour>
      <point x="242" y="216" type="line"/>
      <point x="134" y="216" type="line"/>
      <point x="134" y="196" type="line"/>
      <point x="242" y="196" type="line"/>
    </contour>
    <contour>
      <point x="124" y="345" type="line"/>
      <point x="23" y="304" type="line"/>
      <point x="30" y="285" type="line"/>
      <point x="130" y="326" type="line"/>
    </contour>
    <contour>
      <point x="20" y="303" type="line"/>
      <point x="10" y="288" type="line"/>
      <point x="134" y="196" type="line"/>
      <point x="146" y="211" type="line"/>
    </contour>
    <contour>
      <point x="252" y="134" type="line"/>
      <point x="238" y="123" type="line"/>
      <point x="301" y="57" type="line"/>
      <point x="315" y="70" type="line"/>
    </contour>
    <contour>
      <point x="252" y="207" type="line"/>
      <point x="229" y="207" type="line"/>
      <point x="94" y="49" type="line"/>
      <point x="119" y="49" type="line"/>
    </contour>
    <contour>
      <point x="245" y="137" type="line"/>
      <point x="114" y="70" type="line"/>
      <point x="123" y="53" type="line"/>
      <point x="251" y="120" type="line"/>
    </contour>
    <contour>
      <point x="307" y="71" type="line"/>
      <point x="115" y="71" type="line"/>
      <point x="115" y="49" type="line"/>
      <point x="307" y="49" type="line"/>
    </contour>
  </outline>
</glyph>
<glyph name="semicolon" format="2">
  <advance width="195"/>
  <unicode hex="003B"/>
  <outline>
    <contour>
      <point x="15" y="324" type="line"/>
      <point x="180" y="324" type="line"/>
      <point x="180" y="342" type="line"/>
      <point x="15" y="342" type="line"/>
    </contour>
    <contour>
      <point x="29" y="324" type="line"/>
      <point x="100" y="446" type="line"/>
      <point x="91" y="466" type="line"/>
      <point x="15" y="338" type="line"/>
    </contour>
    <contour>
      <point x="166" y="324" type="line"/>
      <point x="180" y="338" type="line"/>
      <point x="103" y="467" type="line"/>
      <point x="94" y="447" type="line"/>
    </contour>
    <contour>
      <point x="15" y="324" type="line"/>
      <point x="35" y="324" type="line"/>
      <point x="35" y="499" type="line"/>
      <point x="15" y="499" type="line"/>
    </contour>
    <contour>
      <point x="91" y="451" type="line"/>
      <point x="104" y="451" type="line"/>
      <point x="104" y="468" type="line"/>
      <point x="91" y="468" type="line"/>
    </contour>
    <contour>
      <point x="160" y="324" type="line"/>
      <point x="180" y="324" type="line"/>
      <point x="180" y="499" type="line"/>
      <point x="160" y="499" type="line"/>
    </contour>
    <contour>
      <point x="92" y="453" type="line"/>
      <point x="101" y="473" type="line"/>
      <point x="29" y="499" type="line"/>
      <point x="15" y="485" type="line"/>
    </contour>
    <contour>
      <point x="18" y="481" type="line"/>
      <point x="180" y="481" type="line"/>
      <point x="180" y="499" type="line"/>
      <point x="18" y="499" type="line"/>
    </contour>
    <contour>
      <point x="103" y="453" type="line"/>
      <point x="179" y="485" type="line"/>
      <point x="165" y="499" type="line"/>
      <point x="94" y="473" type="line"/>
    </contour>
    <contour>
      <point x="15" y="144" type="line"/>
      <point x="180" y="144" type="line"/>
      <point x="180" y="162" type="line"/>
      <point x="15" y="162" type="line"/>
    </contour>
    <contour>
      <point x="29" y="144" type="line"/>
      <point x="100" y="256" type="line"/>
      <point x="91" y="276" type="line"/>
      <point x="15" y="158" type="line"/>
    </contour>
    <contour>
      <point x="166" y="144" type="line"/>
      <point x="180" y="158" type="line"/>
      <point x="103" y="277" type="line"/>
      <point x="94" y="257" type="line"/>
    </contour>
    <contour>
      <point x="15" y="144" type="line"/>
      <point x="35" y="144" type="line"/>
      <point x="35" y="309" type="line"/>
      <point x="15" y="309" type="line"/>
    </contour>
    <contour>
      <point x="91" y="261" type="line"/>
      <point x="104" y="261" type="line"/>
      <point x="104" y="278" type="line"/>
      <point x="91" y="278" type="line"/>
    </contour>
    <contour>
      <point x="160" y="144" type="line"/>
      <point x="180" y="144" type="line"/>
      <point x="180" y="309" type="line"/>
      <point x="160" y="309" type="line"/>
    </contour>
    <contour>
      <point x="92" y="263" type="line"/>
      <point x="101" y="283" type="line"/>
      <point x="29" y="309" type="line"/>
      <point x="15" y="295" type="line"/>
    </contour>
    <contour>
      <point x="18" y="291" type="line"/>
      <point x="180" y="291" type="line"/>
      <point x="180" y="309" type="line"/>
      <point x="18" y="309" type="line"/>
    </contour>
    <contour>
      <point x="103" y="263" type="line"/>
      <point x="179" y="295" type="line"/>
      <point x="165" y="309" type="line"/>
      <point x="94" y="283" type="line"/>
    </contour>
    <contour>
      <point x="15" y="17" type="line"/>
      <point x="35" y="17" type="line"/>
      <point x="35" y="97" type="line"/>
      <point x="15" y="100" type="line"/>
    </contour>
    <contour>
      <point x="28" y="85" type="line"/>
      <point x="94" y="144" type="line"/>
      <point x="77" y="158" type="line"/>
      <point x="15" y="100" type="line"/>
    </contour>
    <contour>
      <point x="30" y="5" type="line"/>
      <point x="180" y="144" type="line"/>
      <point x="167" y="159" type="line"/>
      <point x="15" y="18" type="line"/>
      <point x="15" y="5" type="line"/>
    </contour>
  </outline>
</glyph>
<glyph name="question" format="2">
  <advance width="401"/>
  <unicode hex="003F"/>
  <outline>
    <contour>
      <point x="200" y="358" type="line"/>
      <point x="321" y="415" type="line"/>
      <point x="311" y="431" type="line"/>
      <point x="190" y="373" type="line"/>
    </contour>
    <contour>
      <point x="255" y="314" type="line"/>
      <point x="396" y="351" type="line"/>
      <point x="384" y="367" type="line"/>
      <point x="243" y="330" type="line"/>
    </contour>
    <contour>
      <point x="241" y="240" type="line"/>
      <point x="265" y="331" type="line"/>
      <point x="245" y="331" type="line"/>
      <point x="221" y="240" type="line"/>
    </contour>
    <contour>
      <point x="396" y="351" type="line"/>
      <point x="396" y="455" type="line"/>
      <point x="376" y="455" type="line"/>
      <point x="376" y="351" type="line"/>
    </contour>
    <contour>
      <point x="169" y="240" type="line"/>
      <point x="210" y="240" type="line"/>
      <point x="210" y="259" type="line"/>
      <point x="169" y="259" type="line"/>
    </contour>
    <contour>
      <point x="209" y="247" type="line"/>
      <point x="209" y="373" type="line"/>
      <point x="189" y="373" type="line"/>
      <point x="189" y="247" type="line"/>
    </contour>
    <contour>
      <point x="326" y="414" type="line"/>
      <point x="326" y="468" type="line"/>
      <point x="306" y="468" type="line"/>
      <point x="306" y="414" type="line"/>
    </contour>
    <contour>
      <point x="308" y="410" type="line"/>
      <point x="314" y="428" type="line"/>
      <point x="213" y="408" type="line"/>
      <point x="207" y="390" type="line"/>
    </contour>
    <contour>
      <point x="221" y="413" type="line"/>
      <point x="316" y="463" type="line"/>
      <point x="312" y="480" type="line"/>
      <point x="208" y="426" type="line"/>
    </contour>
    <contour>
      <point x="385" y="439" type="line"/>
      <point x="396" y="455" type="line"/>
      <point x="270" y="550" type="line"/>
      <point x="258" y="534" type="line"/>
    </contour>
    <contour>
      <point x="206" y="357" type="line"/>
      <point x="204" y="377" type="line"/>
      <point x="144" y="358" type="line"/>
      <point x="145" y="339" type="line"/>
    </contour>
    <contour>
      <point x="174" y="240" type="line"/>
      <point x="155" y="354" type="line"/>
      <point x="135" y="355" type="line"/>
      <point x="154" y="240" type="line"/>
    </contour>
    <contour>
      <point x="228" y="394" type="line"/>
      <point x="228" y="428" type="line"/>
      <point x="208" y="428" type="line"/>
      <point x="208" y="394" type="line"/>
    </contour>
    <contour>
      <point x="314" y="453" type="line"/>
      <point x="326" y="468" type="line"/>
      <point x="256" y="527" type="line"/>
      <point x="244" y="512" type="line"/>
    </contour>
    <contour>
      <point x="145" y="339" type="line"/>
      <point x="228" y="397" type="line"/>
      <point x="218" y="413" type="line"/>
      <point x="135" y="355" type="line"/>
    </contour>
    <contour>
      <point x="215" y="412" type="line"/>
      <point x="226" y="427" type="line"/>
      <point x="200" y="441" type="line"/>
      <point x="190" y="426" type="line"/>
    </contour>
    <contour>
      <point x="200" y="420" type="line"/>
      <point x="200" y="441" type="line"/>
      <point x="170" y="441" type="line"/>
      <point x="170" y="420" type="line"/>
    </contour>
    <contour>
      <point x="159" y="406" type="line"/>
      <point x="159" y="424" type="line"/>
      <point x="139" y="424" type="line"/>
      <point x="139" y="406" type="line"/>
    </contour>
    <contour>
      <point x="150" y="408" type="line"/>
      <point x="179" y="424" type="line"/>
      <point x="168" y="439" type="line"/>
      <point x="139" y="423" type="line"/>
    </contour>
    <contour>
      <point x="183" y="427" type="line"/>
      <point x="152" y="514" type="line"/>
      <point x="132" y="514" type="line"/>
      <point x="166" y="420" type="line"/>
    </contour>
    <contour>
      <point x="254" y="509" type="line"/>
      <point x="258" y="527" type="line"/>
      <point x="132" y="527" type="line"/>
      <point x="142" y="509" type="line"/>
    </contour>
    <contour>
      <point x="159" y="391" type="line"/>
      <point x="159" y="411" type="line"/>
      <point x="5" y="411" type="line"/>
      <point x="5" y="391" type="line"/>
    </contour>
    <contour>
      <point x="93" y="453" type="line"/>
      <point x="148" y="508" type="line"/>
      <point x="136" y="524" type="line"/>
      <point x="79" y="465" type="line"/>
    </contour>
    <contour>
      <point x="270" y="530" type="line"/>
      <point x="270" y="550" type="line"/>
      <point x="124" y="550" type="line"/>
      <point x="127" y="530" type="line"/>
    </contour>
    <contour>
      <point x="92" y="470" type="line"/>
      <point x="17" y="457" type="line"/>
      <point x="20" y="441" type="line"/>
      <point x="91" y="452" type="line"/>
    </contour>
    <contour>
      <point x="135" y="508" type="line"/>
      <point x="154" y="514" type="line"/>
      <point x="136" y="545" type="line"/>
      <point x="118" y="539" type="line"/>
    </contour>
    <contour>
      <point x="25" y="411" type="line"/>
      <point x="25" y="453" type="line"/>
      <point x="5" y="456" type="line"/>
      <point x="5" y="411" type="line"/>
    </contour>
    <contour>
      <point x="15" y="438" type="line"/>
      <point x="137" y="535" type="line"/>
      <point x="124" y="550" type="line"/>
      <point x="5" y="456" type="line"/>
    </contour>
    <contour>
      <point x="80" y="453" type="line"/>
      <point x="145" y="407" type="line"/>
      <point x="152" y="423" type="line"/>
      <point x="88" y="469" type="line"/>
    </contour>
    <contour>
      <point x="315" y="463" type="line"/>
      <point x="390" y="439" type="line"/>
      <point x="386" y="457" type="line"/>
      <point x="302" y="486" type="line"/>
    </contour>
    <contour>
      <point x="383" y="349" type="line"/>
      <point x="389" y="366" type="line"/>
      <point x="315" y="429" type="line"/>
      <point x="309" y="411" type="line"/>
    </contour>
    <contour>
      <point x="257" y="314" type="line"/>
      <point x="263" y="332" type="line"/>
      <point x="210" y="375" type="line"/>
      <point x="204" y="358" type="line"/>
    </contour>
    <contour>
      <point x="198" y="240" type="line"/>
      <point x="237" y="240" type="line"/>
      <point x="237" y="259" type="line"/>
      <point x="198" y="259" type="line"/>
    </contour>
    <contour>
      <point x="115" y="50" type="line"/>
      <point x="280" y="50" type="line"/>
      <point x="280" y="68" type="line"/>
      <point x="115" y="68" type="line"/>
    </contour>
    <contour>
      <point x="129" y="50" type="line"/>
      <point x="200" y="171" type="line"/>
      <point x="191" y="191" type="line"/>
      <point x="115" y="64" type="line"/>
    </contour>
    <contour>
      <point x="266" y="50" type="line"/>
      <point x="280" y="64" type="line"/>
      <point x="203" y="192" type="line"/>
      <point x="194" y="172" type="line"/>
    </contour>
    <contour>
      <point x="115" y="50" type="line"/>
      <point x="135" y="50" type="line"/>
      <point x="135" y="225" type="line"/>
      <point x="115" y="225" type="line"/>
    </contour>
    <contour>
      <point x="191" y="176" type="line"/>
      <point x="204" y="176" type="line"/>
      <point x="204" y="193" type="line"/>
      <point x="191" y="193" type="line"/>
    </contour>
    <contour>
      <point x="260" y="50" type="line"/>
      <point x="280" y="50" type="line"/>
      <point x="280" y="225" type="line"/>
      <point x="260" y="225" type="line"/>
    </contour>
    <contour>
      <point x="192" y="178" type="line"/>
      <point x="201" y="198" type="line"/>
      <point x="129" y="225" type="line"/>
      <point x="115" y="211" type="line"/>
    </contour>
    <contour>
      <point x="118" y="207" type="line"/>
      <point x="280" y="207" type="line"/>
      <point x="280" y="225" type="line"/>
      <point x="118" y="225" type="line"/>
    </contour>
    <contour>
      <point x="203" y="178" type="line"/>
      <point x="279" y="211" type="line"/>
      <point x="265" y="225" type="line"/>
      <point x="194" y="198" type="line"/>
    </contour>
    <contour>
      <point x="210" y="429" type="line"/>
      <point x="263" y="516" type="line"/>
      <point x="245" y="522" type="line"/>
      <point x="191" y="429" type="line"/>
    </contour>
    <contour>
      <point x="256" y="512" type="line"/>
      <point x="283" y="535" type="line"/>
      <point x="265" y="541" type="line"/>
      <point x="237" y="522" type="line"/>
    </contour>
  </outline>
</glyph>
<glyph name="at" format="2">
  <advance width="447"/>
  <unicode hex="0040"/>
  <outline>
    <contour>
      <point x="152" y="70" type="line"/>
      <point x="27" y="217" type="line"/>
      <point x="15" y="208" type="line"/>
      <point x="140" y="61" type="line"/>
    </contour>
    <contour>
      <point x="341" y="76" type="line"/>
      <point x="140" y="76" type="line"/>
      <point x="140" y="61" type="line"/>
      <point x="341" y="61" type="line"/>
    </contour>
    <contour>
      <point x="301" y="124" type="line"/>
      <point x="158" y="124" type="line"/>
      <point x="158" y="109" type="line"/>
      <point x="301" y="109" type="line"/>
    </contour>
    <contour>
      <point x="341" y="132" type="line"/>
      <point x="178" y="132" type="line"/>
      <point x="178" y="117" type="line"/>
      <point x="341" y="117" type="line"/>
    </contour>
    <contour>
      <point x="170" y="118" type="line"/>
      <point x="57" y="251" type="line"/>
      <point x="45" y="242" type="line"/>
      <point x="158" y="109" type="line"/>
    </contour>
    <contour>
      <point x="190" y="126" type="line"/>
      <point x="85" y="249" type="line"/>
      <point x="73" y="240" type="line"/>
      <point x="178" y="117" type="line"/>
    </contour>
    <contour>
      <point x="341" y="132" type="line"/>
      <point x="326" y="132" type="line"/>
      <point x="326" y="61" type="line"/>
      <point x="341" y="61" type="line"/>
    </contour>
    <contour>
      <point x="299" y="109" type="line"/>
      <point x="340" y="121" type="line"/>
      <point x="331" y="132" type="line"/>
      <point x="289" y="119" type="line"/>
    </contour>
    <contour>
      <point x="299" y="124" type="line"/>
      <point x="289" y="114" type="line"/>
      <point x="331" y="61" type="line"/>
      <point x="340" y="72" type="line"/>
    </contour>
    <contour>
      <point x="152" y="536" type="line"/>
      <point x="140" y="545" type="line"/>
      <point x="15" y="398" type="line"/>
      <point x="27" y="389" type="line"/>
    </contour>
    <contour>
      <point x="60" y="242" type="line"/>
      <point x="60" y="404" type="line"/>
      <point x="45" y="404" type="line"/>
      <point x="45" y="242" type="line"/>
    </contour>
    <contour>
      <point x="30" y="208" type="line"/>
      <point x="30" y="398" type="line"/>
      <point x="15" y="398" type="line"/>
      <point x="15" y="208" type="line"/>
    </contour>
    <contour>
      <point x="170" y="528" type="line"/>
      <point x="158" y="537" type="line"/>
      <point x="45" y="404" type="line"/>
      <point x="57" y="395" type="line"/>
    </contour>
    <contour>
      <point x="90" y="238" type="line"/>
      <point x="90" y="368" type="line"/>
      <point x="75" y="368" type="line"/>
      <point x="75" y="238" type="line"/>
    </contour>
    <contour>
      <point x="190" y="480" type="line"/>
      <point x="178" y="489" type="line"/>
      <point x="75" y="368" type="line"/>
      <point x="87" y="359" type="line"/>
    </contour>
    <contour>
      <point x="295" y="536" type="line"/>
      <point x="420" y="389" type="line"/>
      <point x="432" y="398" type="line"/>
      <point x="307" y="545" type="line"/>
    </contour>
    <contour>
      <point x="387" y="297" type="line"/>
      <point x="402" y="297" type="line"/>
      <point x="402" y="404" type="line"/>
      <point x="387" y="404" type="line"/>
    </contour>
    <contour>
      <point x="140" y="530" type="line"/>
      <point x="307" y="530" type="line"/>
      <point x="307" y="545" type="line"/>
      <point x="140" y="545" type="line"/>
    </contour>
    <contour>
      <point x="158" y="522" type="line"/>
      <point x="289" y="522" type="line"/>
      <point x="289" y="537" type="line"/>
      <point x="158" y="537" type="line"/>
    </contour>
    <contour>
      <point x="178" y="474" type="line"/>
      <point x="269" y="474" type="line"/>
      <point x="269" y="489" type="line"/>
      <point x="178" y="489" type="line"/>
    </contour>
    <contour>
      <point x="417" y="253" type="line"/>
      <point x="432" y="253" type="line"/>
      <point x="432" y="398" type="line"/>
      <point x="417" y="398" type="line"/>
    </contour>
    <contour>
      <point x="277" y="528" type="line"/>
      <point x="390" y="395" type="line"/>
      <point x="402" y="404" type="line"/>
      <point x="289" y="537" type="line"/>
    </contour>
    <contour>
      <point x="357" y="289" type="line"/>
      <point x="372" y="289" type="line"/>
      <point x="372" y="368" type="line"/>
      <point x="357" y="368" type="line"/>
    </contour>
    <contour>
      <point x="257" y="480" type="line"/>
      <point x="360" y="359" type="line"/>
      <point x="372" y="368" type="line"/>
      <point x="269" y="489" type="line"/>
    </contour>
    <contour>
      <point x="195" y="405" type="line"/>
      <point x="182" y="413" type="line"/>
      <point x="148" y="373" type="line"/>
      <point x="160" y="364" type="line"/>
    </contour>
    <contour>
      <point x="179" y="428" type="line"/>
      <point x="167" y="437" type="line"/>
      <point x="108" y="371" type="line"/>
      <point x="120" y="362" type="line"/>
    </contour>
    <contour>
      <point x="226" y="337" type="line"/>
      <point x="226" y="352" type="line"/>
      <point x="209" y="352" type="line"/>
      <point x="209" y="337" type="line"/>
    </contour>
    <contour>
      <point x="221" y="343" type="line"/>
      <point x="209" y="352" type="line"/>
      <point x="190" y="329" type="line"/>
      <point x="202" y="320" type="line"/>
    </contour>
    <contour>
      <point x="325" y="372" type="line"/>
      <point x="325" y="289" type="line"/>
      <point x="340" y="289" type="line"/>
      <point x="340" y="372" type="line"/>
    </contour>
    <contour>
      <point x="285" y="373" type="line"/>
      <point x="285" y="297" type="line"/>
      <point x="300" y="299" type="line"/>
      <point x="300" y="373" type="line"/>
    </contour>
    <contour>
      <point x="167" y="422" type="line"/>
      <point x="285" y="422" type="line"/>
      <point x="285" y="437" type="line"/>
      <point x="167" y="437" type="line"/>
    </contour>
    <contour>
      <point x="182" y="398" type="line"/>
      <point x="260" y="398" type="line"/>
      <point x="260" y="413" type="line"/>
      <point x="182" y="413" type="line"/>
    </contour>
    <contour>
      <point x="248" y="404" type="line"/>
      <point x="288" y="364" type="line"/>
      <point x="300" y="373" type="line"/>
      <point x="260" y="413" type="line"/>
    </contour>
    <contour>
      <point x="273" y="428" type="line"/>
      <point x="328" y="363" type="line"/>
      <point x="340" y="372" type="line"/>
      <point x="285" y="437" type="line"/>
    </contour>
    <contour>
      <point x="243" y="329" type="line"/>
      <point x="243" y="282" type="line"/>
      <point x="258" y="282" type="line"/>
      <point x="258" y="329" type="line"/>
    </contour>
    <contour>
      <point x="222" y="337" type="line"/>
      <point x="239" y="337" type="line"/>
      <point x="239" y="352" type="line"/>
      <point x="222" y="352" type="line"/>
    </contour>
    <contour>
      <point x="227" y="343" type="line"/>
      <point x="246" y="320" type="line"/>
      <point x="258" y="329" type="line"/>
      <point x="239" y="352" type="line"/>
    </contour>
    <contour>
      <point x="108" y="317" type="line"/>
      <point x="108" y="247" type="line"/>
      <point x="123" y="247" type="line"/>
      <point x="123" y="317" type="line"/>
      <point x="123" y="371" type="line"/>
      <point x="108" y="371" type="line"/>
    </contour>
    <contour>
      <point x="148" y="337" type="line"/>
      <point x="148" y="294" type="line"/>
      <point x="163" y="294" type="line"/>
      <point x="163" y="337" type="line"/>
      <point x="163" y="373" type="line"/>
      <point x="148" y="373" type="line"/>
    </contour>
    <contour>
      <point x="241" y="192" type="line"/>
      <point x="167" y="192" type="line"/>
      <point x="167" y="177" type="line"/>
      <point x="242" y="177" type="line"/>
    </contour>
    <contour>
      <point x="252" y="267" type="line"/>
      <point x="179" y="267" type="line"/>
      <point x="179" y="252" type="line"/>
      <point x="252" y="252" type="line"/>
    </contour>
    <contour>
      <point x="191" y="261" type="line"/>
      <point x="160" y="303" type="line"/>
      <point x="148" y="294" type="line"/>
      <point x="179" y="252" type="line"/>
    </contour>
    <contour>
      <point x="179" y="186" type="line"/>
      <point x="120" y="256" type="line"/>
      <point x="108" y="247" type="line"/>
      <point x="167" y="177" type="line"/>
    </contour>
    <contour>
      <point x="190" y="322" type="line"/>
      <point x="190" y="300" type="line"/>
      <point x="205" y="300" type="line"/>
      <point x="205" y="322" type="line"/>
      <point x="205" y="329" type="line"/>
      <point x="190" y="329" type="line"/>
    </contour>
    <contour>
      <point x="256" y="292" type="line"/>
      <point x="209" y="292" type="line"/>
      <point x="209" y="277" type="line"/>
      <point x="256" y="277" type="line"/>
    </contour>
    <contour>
      <point x="221" y="286" type="line"/>
      <point x="202" y="309" type="line"/>
      <point x="190" y="300" type="line"/>
      <point x="209" y="277" type="line"/>
    </contour>
    <contour>
      <point x="372" y="297" type="line"/>
      <point x="325" y="297" type="line"/>
      <point x="325" y="282" type="line"/>
      <point x="372" y="282" type="line"/>
    </contour>
    <contour>
      <point x="243" y="285" type="line"/>
      <point x="243" y="257" type="line"/>
      <point x="258" y="257" type="line"/>
      <point x="258" y="285" type="line"/>
    </contour>
    <contour>
      <point x="169" y="113" type="line"/>
      <point x="157" y="122" type="line"/>
      <point x="135" y="71" type="line"/>
      <point x="147" y="62" type="line"/>
    </contour>
    <contour>
      <point x="189" y="123" type="line"/>
      <point x="177" y="132" type="line"/>
      <point x="155" y="121" type="line"/>
      <point x="167" y="112" type="line"/>
    </contour>
    <contour>
      <point x="172" y="531" type="line"/>
      <point x="150" y="542" type="line"/>
      <point x="138" y="533" type="line"/>
      <point x="160" y="522" type="line"/>
    </contour>
    <contour>
      <point x="192" y="481" type="line"/>
      <point x="170" y="532" type="line"/>
      <point x="158" y="523" type="line"/>
      <point x="180" y="472" type="line"/>
    </contour>
    <contour>
      <point x="274" y="531" type="line"/>
      <point x="286" y="522" type="line"/>
      <point x="308" y="533" type="line"/>
      <point x="296" y="542" type="line"/>
    </contour>
    <contour>
      <point x="254" y="481" type="line"/>
      <point x="266" y="472" type="line"/>
      <point x="288" y="523" type="line"/>
      <point x="276" y="532" type="line"/>
    </contour>
    <contour>
      <point x="196" y="259" type="line"/>
      <point x="181" y="264" type="line"/>
      <point x="164" y="187" type="line"/>
      <point x="179" y="182" type="line"/>
    </contour>
    <contour>
      <point x="220" y="285" type="line"/>
      <point x="205" y="290" type="line"/>
      <point x="181" y="262" type="line"/>
      <point x="196" y="257" type="line"/>
    </contour>
    <contour>
      <point x="197" y="407" type="line"/>
      <point x="179" y="432" type="line"/>
      <point x="164" y="427" type="line"/>
      <point x="182" y="402" type="line"/>
    </contour>
    <contour>
      <point x="217" y="343" type="line"/>
      <point x="197" y="409" type="line"/>
      <point x="182" y="404" type="line"/>
      <point x="202" y="338" type="line"/>
    </contour>
    <contour>
      <point x="247" y="406" type="line"/>
      <point x="261" y="401" type="line"/>
      <point x="285" y="427" type="line"/>
      <point x="270" y="432" type="line"/>
    </contour>
    <contour>
      <point x="224" y="340" type="line"/>
      <point x="239" y="335" type="line"/>
      <point x="261" y="403" type="line"/>
      <point x="247" y="408" type="line"/>
    </contour>
    <contour>
      <point x="258" y="257" type="line"/>
      <point x="243" y="262" type="line"/>
      <point x="226" y="182" type="line"/>
      <point x="242" y="177" type="line"/>
    </contour>
    <contour>
      <point x="294" y="192" type="line"/>
      <point x="294" y="177" type="line"/>
      <point x="391" y="177" type="line"/>
      <point x="391" y="192" type="line"/>
    </contour>
    <contour>
      <point x="240" y="257" type="line"/>
      <point x="294" y="177" type="line"/>
      <point x="309" y="183" type="line"/>
      <point x="255" y="263" type="line"/>
    </contour>
    <contour>
      <point x="432" y="253" type="line"/>
      <point x="417" y="258" type="line"/>
      <point x="376" y="182" type="line"/>
      <point x="391" y="177" type="line"/>
    </contour>
    <contour>
      <point x="203" y="300" type="line"/>
      <point x="193" y="313" type="line"/>
      <point x="151" y="307" type="line"/>
      <point x="161" y="294" type="line"/>
    </contour>
    <contour>
      <point x="159" y="293" type="line"/>
      <point x="149" y="306" type="line"/>
      <point x="108" y="256" type="line"/>
      <point x="118" y="243" type="line"/>
    </contour>
    <contour>
      <point x="204" y="331" type="line"/>
      <point x="163" y="376" type="line"/>
      <point x="153" y="363" type="line"/>
      <point x="194" y="318" type="line"/>
    </contour>
    <contour>
      <point x="161" y="377" type="line"/>
      <point x="118" y="378" type="line"/>
      <point x="108" y="365" type="line"/>
      <point x="151" y="364" type="line"/>
    </contour>
    <contour>
      <point x="244" y="331" type="line"/>
      <point x="254" y="318" type="line"/>
      <point x="295" y="363" type="line"/>
      <point x="285" y="376" type="line"/>
    </contour>
    <contour>
      <point x="287" y="377" type="line"/>
      <point x="297" y="364" type="line"/>
      <point x="340" y="365" type="line"/>
      <point x="330" y="379" type="line"/>
    </contour>
    <contour>
      <point x="88" y="239" type="line"/>
      <point x="79" y="251" type="line"/>
      <point x="49" y="253" type="line"/>
      <point x="58" y="241" type="line"/>
    </contour>
    <contour>
      <point x="57" y="240" type="line"/>
      <point x="47" y="252" type="line"/>
      <point x="17" y="215" type="line"/>
      <point x="27" y="202" type="line"/>
    </contour>
    <contour>
      <point x="89" y="368" type="line"/>
      <point x="59" y="406" type="line"/>
      <point x="50" y="394" type="line"/>
      <point x="80" y="356" type="line"/>
    </contour>
    <contour>
      <point x="58" y="407" type="line"/>
      <point x="28" y="405" type="line"/>
      <point x="18" y="392" type="line"/>
      <point x="48" y="395" type="line"/>
    </contour>
    <contour>
      <point x="358" y="368" type="line"/>
      <point x="367" y="356" type="line"/>
      <point x="397" y="394" type="line"/>
      <point x="388" y="406" type="line"/>
    </contour>
    <contour>
      <point x="389" y="407" type="line"/>
      <point x="399" y="395" type="line"/>
      <point x="429" y="392" type="line"/>
      <point x="419" y="405" type="line"/>
    </contour>
    <contour>
      <point x="379" y="267" type="line"/>
      <point x="317" y="267" type="line"/>
      <point x="317" y="252" type="line"/>
      <point x="379" y="252" type="line"/>
    </contour>
    <contour>
      <point x="340" y="285" type="line"/>
      <point x="326" y="290" type="line"/>
      <point x="308" y="262" type="line"/>
      <point x="323" y="257" type="line"/>
    </contour>
    <contour>
      <point x="355" y="285" type="line"/>
      <point x="369" y="257" type="line"/>
      <point x="383" y="262" type="line"/>
      <point x="369" y="290" type="line"/>
    </contour>
    <contour>
      <point x="285" y="297" type="line"/>
      <point x="312" y="258" type="line"/>
      <point x="323" y="268" type="line"/>
      <point x="297" y="305" type="line"/>
    </contour>
    <contour>
      <point x="405" y="297" type="line"/>
      <point x="390" y="305" type="line"/>
      <point x="370" y="263" type="line"/>
      <point x="383" y="255" type="line"/>
    </contour>
    <contour>
      <point x="323" y="257" type="line"/>
      <point x="308" y="262" type="line"/>
      <point x="288" y="187" type="line"/>
      <point x="303" y="182" type="line"/>
    </contour>
    <contour>
      <point x="369" y="259" type="line"/>
      <point x="375" y="182" type="line"/>
      <point x="390" y="187" type="line"/>
      <point x="383" y="269" type="line"/>
    </contour>
    <contour>
      <point x="301" y="295" type="line"/>
      <point x="291" y="307" type="line"/>
      <point x="249" y="265" type="line"/>
      <point x="259" y="253" type="line"/>
    </contour>
    <contour>
      <point x="297" y="312" type="line"/>
      <point x="250" y="292" type="line"/>
      <point x="250" y="277" type="line"/>
      <point x="297" y="297" type="line"/>
    </contour>
    <contour>
      <point x="289" y="310" type="line"/>
      <point x="294" y="296" type="line"/>
      <point x="337" y="288" type="line"/>
      <point x="334" y="301" type="line"/>
    </contour>
    <contour>
      <point x="397" y="309" type="line"/>
      <point x="362" y="298" type="line"/>
      <point x="359" y="285" type="line"/>
      <point x="393" y="295" type="line"/>
    </contour>
    <contour>
      <point x="390" y="297" type="line"/>
      <point x="421" y="249" type="line"/>
      <point x="429" y="262" type="line"/>
      <point x="398" y="310" type="line"/>
    </contour>
  </outline>
</glyph>
<glyph name="B" format="2">
  <advance width="559"/>
  <unicode hex="0042"/>
  <anchor x="282" y="50" name="bottom"/>
  <anchor x="282" y="300" name="center"/>
  <anchor x="282" y="550" name="top"/>
  <outline>
    <contour>
      <point x="10" y="50" type="line"/>
      <point x="30" y="50" type="line"/>
      <point x="30" y="550" type="line"/>
      <point x="10" y="550" type="line"/>
    </contour>
    <contour>
      <point x="98" y="185" type="line"/>
      <point x="118" y="185" type="line"/>
      <point x="118" y="508" type="line"/>
      <point x="98" y="508" type="line"/>
    </contour>
    <contour>
      <point x="211" y="363" type="line"/>
      <point x="231" y="363" type="line"/>
      <point x="231" y="414" type="line"/>
      <point x="211" y="414" type="line"/>
    </contour>
    <contour>
      <point x="211" y="219" type="line"/>
      <point x="231" y="219" type="line"/>
      <point x="231" y="256" type="line"/>
      <point x="211" y="256" type="line"/>
    </contour>
    <contour>
      <point x="534" y="104" type="line"/>
      <point x="554" y="104" type="line"/>
      <point x="554" y="239" type="line"/>
      <point x="534" y="239" type="line"/>
    </contour>
    <contour>
      <point x="531" y="373" type="line"/>
      <point x="551" y="373" type="line"/>
      <point x="551" y="492" type="line"/>
      <point x="531" y="492" type="line"/>
    </contour>
    <contour>
      <point x="11" y="70" type="line"/>
      <point x="11" y="50" type="line"/>
      <point x="429" y="50" type="line"/>
      <point x="429" y="70" type="line"/>
    </contour>
    <contour>
      <point x="11" y="550" type="line"/>
      <point x="11" y="530" type="line"/>
      <point x="430" y="530" type="line"/>
      <point x="430" y="550" type="line"/>
    </contour>
    <contour>
      <point x="98" y="515" type="line"/>
      <point x="98" y="495" type="line"/>
      <point x="360" y="495" type="line"/>
      <point x="361" y="515" type="line"/>
    </contour>
    <contour>
      <point x="98" y="198" type="line"/>
      <point x="98" y="178" type="line"/>
      <point x="371" y="178" type="line"/>
      <point x="371" y="198" type="line"/>
    </contour>
    <contour>
      <point x="409" y="428" type="line"/>
      <point x="429" y="428" type="line"/>
      <point x="429" y="481" type="line"/>
      <point x="409" y="481" type="line"/>
    </contour>
    <contour>
      <point x="410" y="223" type="line"/>
      <point x="430" y="223" type="line"/>
      <point x="430" y="281" type="line"/>
      <point x="410" y="281" type="line"/>
    </contour>
    <contour>
      <point x="211" y="227" type="line"/>
      <point x="211" y="212" type="line"/>
      <point x="312" y="212" type="line"/>
      <point x="312" y="227" type="line"/>
    </contour>
    <contour>
      <point x="211" y="258" type="line"/>
      <point x="211" y="243" type="line"/>
      <point x="316" y="243" type="line"/>
      <point x="316" y="258" type="line"/>
    </contour>
    <contour>
      <point x="211" y="415" type="line"/>
      <point x="211" y="395" type="line"/>
      <point x="307" y="395" type="line"/>
      <point x="307" y="415" type="line"/>
    </contour>
    <contour>
      <point x="211" y="378" type="line"/>
      <point x="211" y="358" type="line"/>
      <point x="307" y="358" type="line"/>
      <point x="307" y="378" type="line"/>
    </contour>
    <contour>
      <point x="25" y="66" type="line"/>
      <point x="116" y="182" type="line"/>
      <point x="100" y="191" type="line"/>
      <point x="13" y="79" type="line"/>
    </contour>
    <contour>
      <point x="217" y="239" type="line"/>
      <point x="228" y="254" type="line"/>
      <point x="112" y="351" type="line"/>
      <point x="100" y="335" type="line"/>
    </contour>
    <contour>
      <point x="215" y="400" type="line"/>
      <point x="227" y="415" type="line"/>
      <point x="111" y="507" type="line"/>
      <point x="98" y="491" type="line"/>
    </contour>
    <contour>
      <point x="217" y="375" type="line"/>
      <point x="112" y="348" type="line"/>
      <point x="109" y="328" type="line"/>
      <point x="227" y="360" type="line"/>
    </contour>
    <contour>
      <point x="217" y="229" type="line"/>
      <point x="109" y="196" type="line"/>
      <point x="119" y="180" type="line"/>
      <point x="227" y="215" type="line"/>
    </contour>
    <contour>
      <point x="420" y="339" type="line"/>
      <point x="424" y="342" type="line"/>
      <point x="309" y="372" type="line"/>
      <point x="295" y="358" type="line"/>
      <point x="407" y="330" type="line"/>
      <point x="420" y="338" type="line"/>
      <point x="430" y="332" type="line"/>
      <point x="551" y="373" type="line"/>
      <point x="541" y="388" type="line"/>
      <point x="413" y="343" type="line"/>
      <point x="420" y="339" type="line"/>
      <point x="408" y="330" type="line"/>
      <point x="544" y="224" type="line"/>
      <point x="554" y="239" type="line"/>
      <point x="424" y="342" type="line"/>
      <point x="420" y="339" type="line"/>
      <point x="413" y="343" type="line"/>
      <point x="304" y="254" type="line"/>
      <point x="320" y="245" type="line"/>
      <point x="430" y="332" type="line"/>
    </contour>
    <contour>
      <point x="533" y="107" type="line"/>
      <point x="541" y="123" type="line"/>
      <point x="424" y="232" type="line"/>
      <point x="411" y="220" type="line"/>
    </contour>
    <contour>
      <point x="433" y="53" type="line"/>
      <point x="447" y="64" type="line"/>
      <point x="370" y="194" type="line"/>
      <point x="355" y="183" type="line"/>
    </contour>
    <contour>
      <point x="530" y="499" type="line"/>
      <point x="413" y="479" type="line"/>
      <point x="421" y="462" type="line"/>
      <point x="548" y="483" type="line"/>
    </contour>
    <contour>
      <point x="544" y="119" type="line"/>
      <point x="418" y="66" type="line"/>
      <point x="429" y="50" type="line"/>
      <point x="554" y="104" type="line"/>
    </contour>
    <contour>
      <point x="541" y="477" type="line"/>
      <point x="551" y="492" type="line"/>
      <point x="430" y="550" type="line"/>
      <point x="419" y="534" type="line"/>
    </contour>
    <contour>
      <point x="420" y="238" type="line"/>
      <point x="354" y="189" type="line"/>
      <point x="365" y="173" type="line"/>
      <point x="430" y="223" type="line"/>
    </contour>
    <contour>
      <point x="421" y="445" type="line"/>
      <point x="351" y="356" type="line"/>
      <point x="369" y="349" type="line"/>
      <point x="429" y="428" type="line"/>
    </contour>
    <contour>
      <point x="419" y="465" type="line"/>
      <point x="429" y="480" type="line"/>
      <point x="361" y="515" type="line"/>
      <point x="347" y="500" type="line"/>
    </contour>
    <contour>
      <point x="423" y="266" type="line"/>
      <point x="430" y="281" type="line"/>
      <point x="367" y="298" type="line"/>
      <point x="355" y="283" type="line"/>
    </contour>
    <contour>
      <point x="325" y="229" type="line"/>
      <point x="334" y="241" type="line"/>
      <point x="309" y="258" type="line"/>
      <point x="299" y="247" type="line"/>
    </contour>
    <contour>
      <point x="317" y="225" type="line"/>
      <point x="334" y="224" type="line"/>
      <point x="334" y="241" type="line"/>
      <point x="317" y="241" type="line"/>
    </contour>
    <contour>
      <point x="328" y="239" type="line"/>
      <point x="302" y="224" type="line"/>
      <point x="312" y="213" type="line"/>
      <point x="334" y="224" type="line"/>
    </contour>
    <contour>
      <point x="430" y="281" type="line"/>
      <point x="418" y="264" type="line"/>
      <point x="545" y="225" type="line"/>
      <point x="545" y="245" type="line"/>
    </contour>
    <contour>
      <point x="413" y="422" type="line"/>
      <point x="526" y="370" type="line"/>
      <point x="540" y="387" type="line"/>
      <point x="422" y="440" type="line"/>
    </contour>
    <contour>
      <point x="104" y="346" type="line"/>
      <point x="104" y="326" type="line"/>
      <point x="407" y="326" type="line"/>
      <point x="408" y="346" type="line"/>
    </contour>
    <contour>
      <point x="350" y="509" type="line"/>
      <point x="293" y="405" type="line"/>
      <point x="307" y="395" type="line"/>
      <point x="365" y="498" type="line"/>
    </contour>
    <contour>
      <point x="424" y="546" type="line"/>
      <point x="343" y="512" type="line"/>
      <point x="358" y="501" type="line"/>
      <point x="436" y="534" type="line"/>
    </contour>
    <contour>
      <point x="324" y="377" type="line"/>
      <point x="335" y="394" type="line"/>
      <point x="307" y="415" type="line"/>
      <point x="297" y="397" type="line"/>
    </contour>
    <contour>
      <point x="312" y="376" type="line"/>
      <point x="334" y="376" type="line"/>
      <point x="334" y="394" type="line"/>
      <point x="312" y="395" type="line"/>
    </contour>
    <contour>
      <point x="327" y="391" type="line"/>
      <point x="297" y="373" type="line"/>
      <point x="307" y="358" type="line"/>
      <point x="334" y="376" type="line"/>
    </contour>
    <contour>
      <point x="329" y="383" type="line"/>
      <point x="424" y="464" type="line"/>
      <point x="415" y="478" type="line"/>
      <point x="323" y="397" type="line"/>
    </contour>
    <contour>
      <point x="319" y="380" type="line"/>
      <point x="320" y="362" type="line"/>
      <point x="424" y="428" type="line"/>
      <point x="416" y="444" type="line"/>
    </contour>
    <contour>
      <point x="329" y="238" type="line"/>
      <point x="323" y="222" type="line"/>
      <point x="419" y="219" type="line"/>
      <point x="418" y="236" type="line"/>
    </contour>
    <contour>
      <point x="328" y="231" type="line"/>
      <point x="424" y="265" type="line"/>
      <point x="418" y="279" type="line"/>
      <point x="320" y="243" type="line"/>
    </contour>
    <contour>
      <point x="359" y="182" type="line"/>
      <point x="374" y="195" type="line"/>
      <point x="309" y="224" type="line"/>
      <point x="293" y="217" type="line"/>
    </contour>
    <contour>
      <point x="23" y="550" type="line"/>
      <point x="11" y="537" type="line"/>
      <point x="99" y="497" type="line"/>
      <point x="112" y="511" type="line"/>
    </contour>
  </outline>
</glyph>
<glyph name="I" format="2">
  <advance width="260"/>
  <unicode hex="0049"/>
  <anchor x="130" y="50" name="bottom"/>
  <anchor x="228" y="68" name="ogonek"/>
  <anchor x="130" y="550" name="top"/>
  <anchor x="25" y="550" name="topleft"/>
  <outline>
    <contour>
      <point x="10" y="50" type="line"/>
      <point x="250" y="50" type="line"/>
      <point x="250" y="70" type="line"/>
      <point x="10" y="70" type="line"/>
    </contour>
    <contour>
      <point x="26" y="50" type="line"/>
      <point x="138" y="215" type="line"/>
      <point x="122" y="228" type="line"/>
      <point x="10" y="63" type="line"/>
    </contour>
    <contour>
      <point x="234" y="50" type="line"/>
      <point x="250" y="63" type="line"/>
      <point x="138" y="228" type="line"/>
      <point x="122" y="215" type="line"/>
    </contour>
    <contour>
      <point x="10" y="50" type="line"/>
      <point x="30" y="50" type="line"/>
      <point x="30" y="550" type="line"/>
      <point x="10" y="550" type="line"/>
    </contour>
    <contour>
      <point x="120" y="213" type="line"/>
      <point x="140" y="213" type="line"/>
      <point x="140" y="506" type="line"/>
      <point x="120" y="506" type="line"/>
    </contour>
    <contour>
      <point x="230" y="50" type="line"/>
      <point x="250" y="50" type="line"/>
      <point x="250" y="550" type="line"/>
      <point x="230" y="550" type="line"/>
    </contour>
    <contour>
      <point x="122" y="488" type="line"/>
      <point x="135" y="504" type="line"/>
      <point x="23" y="550" type="line"/>
      <point x="10" y="533" type="line"/>
    </contour>
    <contour>
      <point x="15" y="530" type="line"/>
      <point x="250" y="530" type="line"/>
      <point x="250" y="550" type="line"/>
      <point x="15" y="550" type="line"/>
    </contour>
    <contour>
      <point x="137" y="488" type="line"/>
      <point x="249" y="533" type="line"/>
      <point x="236" y="550" type="line"/>
      <point x="124" y="504" type="line"/>
    </contour>
  </outline>
</glyph>
<glyph name="J" format="2">
  <advance width="319"/>
  <unicode hex="004A"/>
  <anchor x="187" y="50" name="bottom"/>
  <anchor x="187" y="550" name="top"/>
  <outline>
    <contour>
      <point x="141" y="50" type="line"/>
      <point x="309" y="196" type="line"/>
      <point x="295" y="212" type="line"/>
      <point x="127" y="64" type="line"/>
    </contour>
    <contour>
      <point x="5" y="50" type="line"/>
      <point x="141" y="50" type="line"/>
      <point x="141" y="68" type="line"/>
      <point x="5" y="68" type="line"/>
    </contour>
    <contour>
      <point x="5" y="50" type="line"/>
      <point x="25" y="50" type="line"/>
      <point x="25" y="245" type="line"/>
      <point x="5" y="245" type="line"/>
    </contour>
    <contour>
      <point x="27" y="61" type="line"/>
      <point x="97" y="231" type="line"/>
      <point x="79" y="238" type="line"/>
      <point x="12" y="71" type="line"/>
    </contour>
    <contour>
      <point x="129" y="59" type="line"/>
      <point x="146" y="68" type="line"/>
      <point x="94" y="240" type="line"/>
      <point x="77" y="231" type="line"/>
    </contour>
    <contour>
      <point x="6" y="227" type="line"/>
      <point x="53" y="227" type="line"/>
      <point x="53" y="245" type="line"/>
      <point x="6" y="245" type="line"/>
    </contour>
    <contour>
      <point x="81" y="221" type="line"/>
      <point x="98" y="239" type="line"/>
      <point x="45" y="247" type="line"/>
      <point x="36" y="229" type="line"/>
    </contour>
    <contour>
      <point x="55" y="237" type="line"/>
      <point x="98" y="271" type="line"/>
      <point x="80" y="278" type="line"/>
      <point x="33" y="241" type="line"/>
    </contour>
    <contour>
      <point x="88" y="221" type="line"/>
      <point x="196" y="293" type="line"/>
      <point x="182" y="307" type="line"/>
      <point x="75" y="237" type="line"/>
    </contour>
    <contour>
      <point x="180" y="289" type="line"/>
      <point x="185" y="308" type="line"/>
      <point x="80" y="276" type="line"/>
      <point x="74" y="256" type="line"/>
    </contour>
    <contour>
      <point x="181" y="289" type="line"/>
      <point x="293" y="190" type="line"/>
      <point x="300" y="211" type="line"/>
      <point x="188" y="310" type="line"/>
    </contour>
    <contour>
      <point x="72" y="264" type="line"/>
      <point x="92" y="264" type="line"/>
      <point x="92" y="550" type="line"/>
      <point x="72" y="550" type="line"/>
    </contour>
    <contour>
      <point x="176" y="293" type="line"/>
      <point x="196" y="293" type="line"/>
      <point x="196" y="499" type="line"/>
      <point x="176" y="499" type="line"/>
    </contour>
    <contour>
      <point x="289" y="196" type="line"/>
      <point x="309" y="196" type="line"/>
      <point x="309" y="550" type="line"/>
      <point x="289" y="550" type="line"/>
    </contour>
    <contour>
      <point x="182" y="486" type="line"/>
      <point x="198" y="503" type="line"/>
      <point x="95" y="538" type="line"/>
      <point x="77" y="522" type="line"/>
    </contour>
    <contour>
      <point x="76" y="530" type="line"/>
      <point x="306" y="530" type="line"/>
      <point x="306" y="550" type="line"/>
      <point x="76" y="550" type="line"/>
    </contour>
    <contour>
      <point x="194" y="486" type="line"/>
      <point x="304" y="527" type="line"/>
      <point x="294" y="544" type="line"/>
      <point x="174" y="502" type="line"/>
    </contour>
  </outline>
</glyph>
<glyph name="K" format="2">
  <advance width="596"/>
  <unicode hex="004B"/>
  <anchor x="301" y="50" name="bottom"/>
  <anchor x="301" y="550" name="top"/>
  <outline>
    <contour>
      <point x="10" y="50" type="line"/>
      <point x="250" y="50" type="line"/>
      <point x="250" y="70" type="line"/>
      <point x="10" y="70" type="line"/>
    </contour>
    <contour>
      <point x="24" y="50" type="line"/>
      <point x="136" y="213" type="line"/>
      <point x="122" y="227" type="line"/>
      <point x="10" y="63" type="line"/>
    </contour>
    <contour>
      <point x="236" y="50" type="line"/>
      <point x="250" y="63" type="line"/>
      <point x="138" y="227" type="line"/>
      <point x="124" y="213" type="line"/>
    </contour>
    <contour>
      <point x="10" y="50" type="line"/>
      <point x="30" y="50" type="line"/>
      <point x="30" y="550" type="line"/>
      <point x="10" y="550" type="line"/>
    </contour>
    <contour>
      <point x="120" y="211" type="line"/>
      <point x="140" y="211" type="line"/>
      <point x="140" y="506" type="line"/>
      <point x="120" y="506" type="line"/>
    </contour>
    <contour>
      <point x="230" y="50" type="line"/>
      <point x="250" y="50" type="line"/>
      <point x="250" y="550" type="line"/>
      <point x="230" y="550" type="line"/>
    </contour>
    <contour>
      <point x="122" y="487" type="line"/>
      <point x="135" y="504" type="line"/>
      <point x="23" y="550" type="line"/>
      <point x="10" y="535" type="line"/>
    </contour>
    <contour>
      <point x="15" y="530" type="line"/>
      <point x="250" y="530" type="line"/>
      <point x="250" y="550" type="line"/>
      <point x="15" y="550" type="line"/>
    </contour>
    <contour>
      <point x="137" y="487" type="line"/>
      <point x="249" y="535" type="line"/>
      <point x="236" y="550" type="line"/>
      <point x="124" y="504" type="line"/>
    </contour>
    <contour>
      <point x="431" y="299" type="line"/>
      <point x="591" y="550" type="line"/>
      <point x="570" y="550" type="line"/>
      <point x="416" y="310" type="line"/>
    </contour>
    <contour>
      <point x="372" y="530" type="line"/>
      <point x="577" y="530" type="line"/>
      <point x="577" y="550" type="line"/>
      <point x="380" y="550" type="line"/>
    </contour>
    <contour>
      <point x="249" y="305" type="line"/>
      <point x="400" y="548" type="line"/>
      <point x="380" y="550" type="line"/>
      <point x="243" y="329" type="line"/>
    </contour>
    <contour>
      <point x="586" y="50" type="line"/>
      <point x="433" y="320" type="line"/>
      <point x="416" y="311" type="line"/>
      <point x="563" y="56" type="line"/>
    </contour>
    <contour>
      <point x="343" y="63" type="line"/>
      <point x="252" y="252" type="line"/>
      <point x="246" y="215" type="line"/>
      <point x="326" y="50" type="line"/>
    </contour>
    <contour>
      <point x="398" y="220" type="line"/>
      <point x="560" y="56" type="line"/>
      <point x="572" y="71" type="line"/>
      <point x="407" y="237" type="line"/>
    </contour>
    <contour>
      <point x="326" y="50" type="line"/>
      <point x="586" y="50" type="line"/>
      <point x="567" y="69" type="line"/>
      <point x="326" y="69" type="line"/>
    </contour>
    <contour>
      <point x="341" y="61" type="line"/>
      <point x="418" y="220" type="line"/>
      <point x="402" y="231" type="line"/>
      <point x="321" y="66" type="line"/>
    </contour>
    <contour>
      <point x="419" y="224" type="line"/>
      <point x="358" y="346" type="line"/>
      <point x="340" y="339" type="line"/>
      <point x="403" y="212" type="line"/>
    </contour>
    <contour>
      <point x="354" y="338" type="line"/>
      <point x="451" y="493" type="line"/>
      <point x="433" y="499" type="line"/>
      <point x="338" y="346" type="line"/>
    </contour>
    <contour>
      <point x="437" y="481" type="line"/>
      <point x="577" y="531" type="line"/>
      <point x="573" y="547" type="line"/>
      <point x="439" y="502" type="line"/>
    </contour>
    <contour>
      <point x="438" y="320" type="line"/>
      <point x="346" y="352" type="line"/>
      <point x="339" y="335" type="line"/>
      <point x="432" y="302" type="line"/>
    </contour>
    <contour>
      <point x="377" y="538" type="line"/>
      <point x="434" y="485" type="line"/>
      <point x="448" y="497" type="line"/>
      <point x="397" y="543" type="line"/>
    </contour>
    <contour>
      <point x="344" y="345" type="line"/>
      <point x="238" y="246" type="line"/>
      <point x="250" y="232" type="line"/>
      <point x="357" y="334" type="line"/>
    </contour>
    <contour>
      <point x="351" y="335" type="line"/>
      <point x="352" y="355" type="line"/>
      <point x="241" y="323" type="line"/>
      <point x="244" y="305" type="line"/>
    </contour>
  </outline>
</glyph>
<glyph name="N" format="2">
  <advance width="631"/>
  <unicode hex="004E"/>
  <anchor x="316" y="50" name="bottom"/>
  <anchor x="316" y="550" name="top"/>
  <outline>
    <contour>
      <point x="10" y="50" type="line"/>
      <point x="30" y="50" type="line"/>
      <point x="30" y="550" type="line"/>
      <point x="10" y="550" type="line"/>
    </contour>
    <contour>
      <point x="172" y="50" type="line"/>
      <point x="192" y="50" type="line"/>
      <point x="192" y="354" type="line"/>
      <point x="172" y="391" type="line"/>
    </contour>
    <contour>
      <point x="601" y="50" type="line"/>
      <point x="621" y="50" type="line"/>
      <point x="621" y="550" type="line"/>
      <point x="601" y="550" type="line"/>
    </contour>
    <contour>
      <point x="509" y="185" type="line"/>
      <point x="529" y="161" type="line"/>
      <point x="529" y="505" type="line"/>
      <point x="509" y="505" type="line"/>
    </contour>
    <contour>
      <point x="610" y="63" type="line"/>
      <point x="617" y="86" type="line"/>
      <point x="480" y="234" type="line"/>
      <point x="468" y="214" type="line"/>
    </contour>
    <contour>
      <point x="346" y="61" type="line"/>
      <point x="489" y="213" type="line"/>
      <point x="480" y="234" type="line"/>
      <point x="335" y="78" type="line"/>
    </contour>
    <contour>
      <point x="24" y="59" type="line"/>
      <point x="104" y="185" type="line"/>
      <point x="91" y="200" type="line"/>
      <point x="11" y="72" type="line"/>
    </contour>
    <contour>
      <point x="179" y="61" type="line"/>
      <point x="191" y="75" type="line"/>
      <point x="99" y="201" type="line"/>
      <point x="88" y="183" type="line"/>
    </contour>
    <contour>
      <point x="340" y="50" type="line"/>
      <point x="619" y="50" type="line"/>
      <point x="619" y="70" type="line"/>
      <point x="340" y="70" type="line"/>
    </contour>
    <contour>
      <point x="339" y="50" type="line"/>
      <point x="358" y="58" type="line"/>
      <point x="105" y="539" type="line"/>
      <point x="87" y="531" type="line"/>
    </contour>
    <contour>
      <point x="11" y="50" type="line"/>
      <point x="192" y="50" type="line"/>
      <point x="192" y="70" type="line"/>
      <point x="11" y="70" type="line"/>
    </contour>
    <contour>
      <point x="10" y="530" type="line"/>
      <point x="331" y="530" type="line"/>
      <point x="331" y="550" type="line"/>
      <point x="10" y="550" type="line"/>
    </contour>
    <contour>
      <point x="289" y="497" type="line"/>
      <point x="335" y="532" type="line"/>
      <point x="324" y="547" type="line"/>
      <point x="271" y="512" type="line"/>
    </contour>
    <contour>
      <point x="451" y="283" type="line"/>
      <point x="451" y="317" type="line"/>
      <point x="331" y="550" type="line"/>
      <point x="316" y="541" type="line"/>
    </contour>
    <contour>
      <point x="440" y="168" type="line"/>
      <point x="460" y="187" type="line"/>
      <point x="460" y="550" type="line"/>
      <point x="440" y="550" type="line"/>
    </contour>
    <contour>
      <point x="85" y="173" type="line"/>
      <point x="105" y="173" type="line"/>
      <point x="105" y="532" type="line"/>
      <point x="85" y="532" type="line"/>
    </contour>
    <contour>
      <point x="440" y="530" type="line"/>
      <point x="621" y="530" type="line"/>
      <point x="621" y="550" type="line"/>
      <point x="440" y="550" type="line"/>
    </contour>
    <contour>
      <point x="521" y="490" type="line"/>
      <point x="619" y="523" type="line"/>
      <point x="610" y="538" type="line"/>
      <point x="511" y="508" type="line"/>
    </contour>
    <contour>
      <point x="441" y="180" type="line"/>
      <point x="456" y="196" type="line"/>
      <point x="282" y="516" type="line"/>
      <point x="264" y="508" type="line"/>
    </contour>
    <contour>
      <point x="275" y="493" type="line"/>
      <point x="284" y="512" type="line"/>
      <point x="73" y="550" type="line"/>
      <point x="62" y="535" type="line"/>
    </contour>
    <contour>
      <point x="519" y="489" type="line"/>
      <point x="529" y="507" type="line"/>
      <point x="450" y="541" type="line"/>
      <point x="441" y="526" type="line"/>
    </contour>
  </outline>
</glyph>
<glyph name="O" format="2">
  <advance width="530"/>
  <unicode hex="004F"/>
  <anchor x="265" y="0" name="bottom"/>
  <anchor x="265" y="300" name="center"/>
  <anchor x="376" y="68" name="ogonek"/>
  <anchor x="265" y="550" name="top"/>
  <anchor x="20" y="550" name="topleft"/>
  <anchor x="510" y="550" name="topright"/>
  <outline>
    <contour>
      <point x="145" y="50" type="line"/>
      <point x="159" y="64" type="line"/>
      <point x="19" y="204" type="line"/>
      <point x="5" y="190" type="line"/>
    </contour>
    <contour>
      <point x="25" y="187" type="line"/>
      <point x="108" y="269" type="line"/>
      <point x="102" y="286" type="line"/>
      <point x="19" y="204" type="line"/>
    </contour>
    <contour>
      <point x="157" y="59" type="line"/>
      <point x="205" y="200" type="line"/>
      <point x="190" y="209" type="line"/>
      <point x="142" y="68" type="line"/>
    </contour>
    <contour>
      <point x="145" y="50" type="line"/>
      <point x="385" y="50" type="line"/>
      <point x="385" y="68" type="line"/>
      <point x="145" y="68" type="line"/>
    </contour>
    <contour>
      <point x="190" y="191" type="line"/>
      <point x="204" y="205" type="line"/>
      <point x="109" y="289" type="line"/>
      <point x="95" y="275" type="line"/>
    </contour>
    <contour>
      <point x="5" y="190" type="line"/>
      <point x="25" y="190" type="line"/>
      <point x="25" y="410" type="line"/>
      <point x="5" y="410" type="line"/>
    </contour>
    <contour>
      <point x="110" y="271" type="line"/>
      <point x="232" y="236" type="line"/>
      <point x="231" y="256" type="line"/>
      <point x="104" y="291" type="line"/>
    </contour>
    <contour>
      <point x="190" y="191" type="line"/>
      <point x="340" y="191" type="line"/>
      <point x="340" y="209" type="line"/>
      <point x="190" y="209" type="line"/>
    </contour>
    <contour>
      <point x="200" y="195" type="line"/>
      <point x="260" y="227" type="line"/>
      <point x="247" y="237" type="line"/>
      <point x="187" y="205" type="line"/>
    </contour>
    <contour>
      <point x="373" y="59" type="line"/>
      <point x="388" y="68" type="line"/>
      <point x="340" y="209" type="line"/>
      <point x="325" y="200" type="line"/>
    </contour>
    <contour>
      <point x="95" y="275" type="line"/>
      <point x="115" y="275" type="line"/>
      <point x="115" y="415" type="line"/>
      <point x="95" y="415" type="line"/>
    </contour>
    <contour>
      <point x="247" y="221" type="line"/>
      <point x="261" y="235" type="line"/>
      <point x="229" y="259" type="line"/>
      <point x="215" y="245" type="line"/>
    </contour>
    <contour>
      <point x="247" y="221" type="line"/>
      <point x="283" y="221" type="line"/>
      <point x="283" y="237" type="line"/>
      <point x="247" y="237" type="line"/>
    </contour>
    <contour>
      <point x="330" y="195" type="line"/>
      <point x="343" y="205" type="line"/>
      <point x="278" y="233" type="line"/>
      <point x="265" y="223" type="line"/>
    </contour>
    <contour>
      <point x="283" y="221" type="line"/>
      <point x="315" y="240" type="line"/>
      <point x="301" y="254" type="line"/>
      <point x="269" y="235" type="line"/>
    </contour>
    <contour>
      <point x="102" y="404" type="line"/>
      <point x="108" y="421" type="line"/>
      <point x="25" y="413" type="line"/>
      <point x="19" y="396" type="line"/>
    </contour>
    <contour>
      <point x="340" y="191" type="line"/>
      <point x="435" y="275" type="line"/>
      <point x="421" y="289" type="line"/>
      <point x="326" y="205" type="line"/>
    </contour>
    <contour>
      <point x="215" y="247" type="line"/>
      <point x="235" y="247" type="line"/>
      <point x="235" y="355" type="line"/>
      <point x="215" y="355" type="line"/>
    </contour>
    <contour>
      <point x="385" y="50" type="line"/>
      <point x="525" y="190" type="line"/>
      <point x="511" y="204" type="line"/>
      <point x="371" y="64" type="line"/>
    </contour>
    <contour>
      <point x="420" y="271" type="line"/>
      <point x="426" y="291" type="line"/>
      <point x="298" y="250" type="line"/>
      <point x="296" y="230" type="line"/>
    </contour>
    <contour>
      <point x="229" y="338" type="line"/>
      <point x="235" y="357" type="line"/>
      <point x="115" y="417" type="line"/>
      <point x="109" y="398" type="line"/>
    </contour>
    <contour>
      <point x="295" y="240" type="line"/>
      <point x="315" y="240" type="line"/>
      <point x="315" y="355" type="line"/>
      <point x="295" y="355" type="line"/>
    </contour>
    <contour>
      <point x="19" y="396" type="line"/>
      <point x="169" y="536" type="line"/>
      <point x="155" y="550" type="line"/>
      <point x="5" y="410" type="line"/>
    </contour>
    <contour>
      <point x="109" y="401" type="line"/>
      <point x="214" y="502" type="line"/>
      <point x="200" y="516" type="line"/>
      <point x="95" y="415" type="line"/>
    </contour>
    <contour>
      <point x="505" y="187" type="line"/>
      <point x="511" y="204" type="line"/>
      <point x="428" y="286" type="line"/>
      <point x="422" y="269" type="line"/>
    </contour>
    <contour>
      <point x="229" y="341" type="line"/>
      <point x="261" y="372" type="line"/>
      <point x="247" y="386" type="line"/>
      <point x="215" y="355" type="line"/>
    </contour>
    <contour>
      <point x="247" y="368" type="line"/>
      <point x="283" y="368" type="line"/>
      <point x="283" y="386" type="line"/>
      <point x="247" y="386" type="line"/>
    </contour>
    <contour>
      <point x="247" y="368" type="line"/>
      <point x="262" y="378" type="line"/>
      <point x="210" y="510" type="line"/>
      <point x="195" y="500" type="line"/>
    </contour>
    <contour>
      <point x="301" y="341" type="line"/>
      <point x="315" y="355" type="line"/>
      <point x="283" y="386" type="line"/>
      <point x="269" y="372" type="line"/>
    </contour>
    <contour>
      <point x="415" y="275" type="line"/>
      <point x="435" y="275" type="line"/>
      <point x="435" y="415" type="line"/>
      <point x="415" y="415" type="line"/>
    </contour>
    <contour>
      <point x="201" y="504" type="line"/>
      <point x="218" y="510" type="line"/>
      <point x="176" y="541" type="line"/>
      <point x="159" y="535" type="line"/>
    </contour>
    <contour>
      <point x="283" y="368" type="line"/>
      <point x="335" y="500" type="line"/>
      <point x="320" y="510" type="line"/>
      <point x="268" y="378" type="line"/>
    </contour>
    <contour>
      <point x="301" y="341" type="line"/>
      <point x="421" y="401" type="line"/>
      <point x="415" y="417" type="line"/>
      <point x="295" y="357" type="line"/>
    </contour>
    <contour>
      <point x="200" y="498" type="line"/>
      <point x="330" y="498" type="line"/>
      <point x="330" y="516" type="line"/>
      <point x="200" y="516" type="line"/>
    </contour>
    <contour>
      <point x="505" y="190" type="line"/>
      <point x="525" y="190" type="line"/>
      <point x="525" y="410" type="line"/>
      <point x="505" y="410" type="line"/>
    </contour>
    <contour>
      <point x="421" y="401" type="line"/>
      <point x="435" y="415" type="line"/>
      <point x="330" y="516" type="line"/>
      <point x="316" y="502" type="line"/>
    </contour>
    <contour>
      <point x="155" y="532" type="line"/>
      <point x="375" y="532" type="line"/>
      <point x="375" y="550" type="line"/>
      <point x="155" y="550" type="line"/>
    </contour>
    <contour>
      <point x="330" y="504" type="line"/>
      <point x="372" y="535" type="line"/>
      <point x="355" y="541" type="line"/>
      <point x="313" y="510" type="line"/>
    </contour>
    <contour>
      <point x="428" y="404" type="line"/>
      <point x="511" y="396" type="line"/>
      <point x="505" y="413" type="line"/>
      <point x="422" y="421" type="line"/>
    </contour>
    <contour>
      <point x="511" y="396" type="line"/>
      <point x="525" y="410" type="line"/>
      <point x="375" y="550" type="line"/>
      <point x="361" y="536" type="line"/>
    </contour>
  </outline>
</glyph>
<glyph name="P" format="2">
  <advance width="573"/>
  <unicode hex="0050"/>
  <anchor x="279" y="50" name="bottom"/>
  <anchor x="279" y="550" name="top"/>
  <outline>
    <contour>
      <point x="10" y="549" type="line"/>
      <point x="10" y="50" type="line"/>
      <point x="30" y="50" type="line"/>
      <point x="30" y="549" type="line"/>
    </contour>
    <contour>
      <point x="227" y="188" type="line"/>
      <point x="227" y="50" type="line"/>
      <point x="247" y="50" type="line"/>
      <point x="247" y="188" type="line"/>
    </contour>
    <contour>
      <point x="240" y="70" type="line"/>
      <point x="15" y="70" type="line"/>
      <point x="14" y="50" type="line"/>
      <point x="240" y="50" type="line"/>
    </contour>
    <contour>
      <point x="411" y="198" type="line"/>
      <point x="227" y="198" type="line"/>
      <point x="227" y="178" type="line"/>
      <point x="411" y="178" type="line"/>
    </contour>
    <contour>
      <point x="409" y="550" type="line"/>
      <point x="10" y="550" type="line"/>
      <point x="10" y="530" type="line"/>
      <point x="409" y="530" type="line"/>
    </contour>
    <contour>
      <point x="226" y="400" type="line"/>
      <point x="226" y="347" type="line"/>
      <point x="245" y="347" type="line"/>
      <point x="245" y="400" type="line"/>
    </contour>
    <contour>
      <point x="434" y="456" type="line"/>
      <point x="434" y="385" type="line"/>
      <point x="453" y="387" type="line"/>
      <point x="453" y="458" type="line"/>
    </contour>
    <contour>
      <point x="23" y="50" type="line"/>
      <point x="135" y="209" type="line"/>
      <point x="122" y="222" type="line"/>
      <point x="10" y="63" type="line"/>
    </contour>
    <contour>
      <point x="235" y="51" type="line"/>
      <point x="247" y="63" type="line"/>
      <point x="138" y="222" type="line"/>
      <point x="123" y="210" type="line"/>
    </contour>
    <contour>
      <point x="120" y="207" type="line"/>
      <point x="140" y="207" type="line"/>
      <point x="140" y="508" type="line"/>
      <point x="120" y="511" type="line"/>
    </contour>
    <contour>
      <point x="230" y="387" type="line"/>
      <point x="246" y="401" type="line"/>
      <point x="143" y="508" type="line"/>
      <point x="125" y="495" type="line"/>
    </contour>
    <contour>
      <point x="233" y="177" type="line"/>
      <point x="249" y="190" type="line"/>
      <point x="142" y="316" type="line"/>
      <point x="136" y="290" type="line"/>
    </contour>
    <contour>
      <point x="364" y="512" type="line"/>
      <point x="382" y="504" type="line"/>
      <point x="411" y="533" type="line"/>
      <point x="396" y="545" type="line"/>
    </contour>
    <contour>
      <point x="369" y="505" type="line"/>
      <point x="438" y="445" type="line"/>
      <point x="453" y="458" type="line"/>
      <point x="381" y="519" type="line"/>
    </contour>
    <contour>
      <point x="395" y="536" type="line"/>
      <point x="556" y="416" type="line"/>
      <point x="568" y="430" type="line"/>
      <point x="409" y="550" type="line"/>
    </contour>
    <contour>
      <point x="445" y="447" type="line"/>
      <point x="565" y="411" type="line"/>
      <point x="555" y="430" type="line"/>
      <point x="436" y="468" type="line"/>
    </contour>
    <contour>
      <point x="546" y="427" type="line"/>
      <point x="546" y="284" type="line"/>
      <point x="568" y="284" type="line"/>
      <point x="568" y="430" type="line"/>
    </contour>
    <contour>
      <point x="396" y="194" type="line"/>
      <point x="411" y="178" type="line"/>
      <point x="568" y="284" type="line"/>
      <point x="557" y="300" type="line"/>
    </contour>
    <contour>
      <point x="440" y="402" type="line"/>
      <point x="430" y="388" type="line"/>
      <point x="556" y="280" type="line"/>
      <point x="560" y="299" type="line"/>
    </contour>
    <contour>
      <point x="337" y="320" type="line"/>
      <point x="400" y="180" type="line"/>
      <point x="414" y="197" type="line"/>
      <point x="359" y="321" type="line"/>
    </contour>
    <contour>
      <point x="343" y="318" type="line"/>
      <point x="358" y="306" type="line"/>
      <point x="453" y="387" type="line"/>
      <point x="441" y="399" type="line"/>
    </contour>
    <contour>
      <point x="359" y="325" type="line"/>
      <point x="140" y="325" type="line"/>
      <point x="140" y="305" type="line"/>
      <point x="359" y="305" type="line"/>
    </contour>
    <contour>
      <point x="381" y="519" type="line"/>
      <point x="124" y="519" type="line"/>
      <point x="124" y="499" type="line"/>
      <point x="381" y="499" type="line"/>
    </contour>
    <contour>
      <point x="228" y="360" type="line"/>
      <point x="128" y="323" type="line"/>
      <point x="139" y="307" type="line"/>
      <point x="249" y="351" type="line"/>
    </contour>
    <contour>
      <point x="299" y="357" type="line"/>
      <point x="348" y="314" type="line"/>
      <point x="362" y="328" type="line"/>
      <point x="326" y="362" type="line"/>
    </contour>
    <contour>
      <point x="318" y="363" type="line"/>
      <point x="230" y="363" type="line"/>
      <point x="230" y="345" type="line"/>
      <point x="318" y="345" type="line"/>
    </contour>
    <contour>
      <point x="310" y="405" type="line"/>
      <point x="227" y="405" type="line"/>
      <point x="227" y="386" type="line"/>
      <point x="308" y="386" type="line"/>
    </contour>
    <contour>
      <point x="297" y="392" type="line"/>
      <point x="317" y="394" type="line"/>
      <point x="387" y="505" type="line"/>
      <point x="369" y="511" type="line"/>
    </contour>
    <contour>
      <point x="331" y="383" type="line"/>
      <point x="331" y="361" type="line"/>
      <point x="350" y="361" type="line"/>
      <point x="350" y="382" type="line"/>
    </contour>
    <contour>
      <point x="345" y="372" type="line"/>
      <point x="443" y="443" type="line"/>
      <point x="433" y="457" type="line"/>
      <point x="340" y="388" type="line"/>
    </contour>
    <contour>
      <point x="337" y="368" type="line"/>
      <point x="321" y="347" type="line"/>
      <point x="440" y="380" type="line"/>
      <point x="440" y="402" type="line"/>
    </contour>
    <contour>
      <point x="304" y="360" type="line"/>
      <point x="318" y="345" type="line"/>
      <point x="354" y="362" type="line"/>
      <point x="339" y="372" type="line"/>
    </contour>
    <contour>
      <point x="295" y="389" type="line"/>
      <point x="333" y="376" type="line"/>
      <point x="352" y="387" type="line"/>
      <point x="310" y="405" type="line"/>
    </contour>
    <contour>
      <point x="125" y="495" type="line"/>
      <point x="133" y="517" type="line"/>
      <point x="36" y="538" type="line"/>
      <point x="20" y="525" type="line"/>
    </contour>
  </outline>
</glyph>
<glyph name="Q" format="2">
  <advance width="530"/>
  <unicode hex="0051"/>
  <outline>
    <contour>
      <point x="145" y="50" type="line"/>
      <point x="159" y="64" type="line"/>
      <point x="19" y="204" type="line"/>
      <point x="5" y="190" type="line"/>
    </contour>
    <contour>
      <point x="25" y="187" type="line"/>
      <point x="108" y="269" type="line"/>
      <point x="102" y="286" type="line"/>
      <point x="19" y="204" type="line"/>
    </contour>
    <contour>
      <point x="157" y="59" type="line"/>
      <point x="205" y="202" type="line"/>
      <point x="190" y="211" type="line"/>
      <point x="142" y="68" type="line"/>
    </contour>
    <contour>
      <point x="145" y="50" type="line"/>
      <point x="222" y="50" type="line"/>
      <point x="222" y="68" type="line"/>
      <point x="147" y="68" type="line"/>
    </contour>
    <contour>
      <point x="190" y="193" type="line"/>
      <point x="206" y="209" type="line"/>
      <point x="106" y="284" type="line"/>
      <point x="95" y="265" type="line"/>
    </contour>
    <contour>
      <point x="5" y="190" type="line"/>
      <point x="25" y="190" type="line"/>
      <point x="25" y="410" type="line"/>
      <point x="5" y="410" type="line"/>
    </contour>
    <contour>
      <point x="110" y="271" type="line"/>
      <point x="215" y="230" type="line"/>
      <point x="224" y="246" type="line"/>
      <point x="104" y="289" type="line"/>
    </contour>
    <contour>
      <point x="190" y="193" type="line"/>
      <point x="340" y="193" type="line"/>
      <point x="340" y="211" type="line"/>
      <point x="190" y="211" type="line"/>
    </contour>
    <contour>
      <point x="200" y="197" type="line"/>
      <point x="260" y="227" type="line"/>
      <point x="247" y="237" type="line"/>
      <point x="187" y="207" type="line"/>
    </contour>
    <contour>
      <point x="371" y="50" type="line"/>
      <point x="384" y="80" type="line"/>
      <point x="342" y="210" type="line"/>
      <point x="325" y="202" type="line"/>
    </contour>
    <contour>
      <point x="95" y="265" type="line"/>
      <point x="115" y="275" type="line"/>
      <point x="115" y="415" type="line"/>
      <point x="95" y="415" type="line"/>
    </contour>
    <contour>
      <point x="247" y="221" type="line"/>
      <point x="261" y="235" type="line"/>
      <point x="219" y="247" type="line"/>
      <point x="215" y="230" type="line"/>
    </contour>
    <contour>
      <point x="247" y="221" type="line"/>
      <point x="283" y="221" type="line"/>
      <point x="283" y="237" type="line"/>
      <point x="247" y="237" type="line"/>
    </contour>
    <contour>
      <point x="330" y="197" type="line"/>
      <point x="345" y="207" type="line"/>
      <point x="283" y="237" type="line"/>
      <point x="269" y="225" type="line"/>
    </contour>
    <contour>
      <point x="283" y="221" type="line"/>
      <point x="313" y="230" type="line"/>
      <point x="308" y="250" type="line"/>
      <point x="275" y="235" type="line"/>
    </contour>
    <contour>
      <point x="102" y="404" type="line"/>
      <point x="108" y="421" type="line"/>
      <point x="25" y="413" type="line"/>
      <point x="19" y="396" type="line"/>
    </contour>
    <contour>
      <point x="340" y="193" type="line"/>
      <point x="435" y="275" type="line"/>
      <point x="421" y="289" type="line"/>
      <point x="326" y="207" type="line"/>
    </contour>
    <contour>
      <point x="215" y="240" type="line"/>
      <point x="235" y="240" type="line"/>
      <point x="235" y="355" type="line"/>
      <point x="215" y="355" type="line"/>
    </contour>
    <contour>
      <point x="371" y="50" type="line"/>
      <point x="525" y="190" type="line"/>
      <point x="511" y="204" type="line"/>
      <point x="372" y="76" type="line"/>
    </contour>
    <contour>
      <point x="423" y="274" type="line"/>
      <point x="426" y="294" type="line"/>
      <point x="305" y="249" type="line"/>
      <point x="313" y="230" type="line"/>
    </contour>
    <contour>
      <point x="223" y="339" type="line"/>
      <point x="229" y="357" type="line"/>
      <point x="115" y="417" type="line"/>
      <point x="109" y="399" type="line"/>
    </contour>
    <contour>
      <point x="295" y="240" type="line"/>
      <point x="315" y="240" type="line"/>
      <point x="315" y="355" type="line"/>
      <point x="295" y="355" type="line"/>
    </contour>
    <contour>
      <point x="19" y="396" type="line"/>
      <point x="169" y="536" type="line"/>
      <point x="155" y="550" type="line"/>
      <point x="5" y="410" type="line"/>
    </contour>
    <contour>
      <point x="109" y="401" type="line"/>
      <point x="214" y="502" type="line"/>
      <point x="200" y="516" type="line"/>
      <point x="95" y="415" type="line"/>
    </contour>
    <contour>
      <point x="505" y="187" type="line"/>
      <point x="511" y="206" type="line"/>
      <point x="428" y="288" type="line"/>
      <point x="422" y="269" type="line"/>
    </contour>
    <contour>
      <point x="229" y="341" type="line"/>
      <point x="261" y="372" type="line"/>
      <point x="247" y="386" type="line"/>
      <point x="215" y="355" type="line"/>
    </contour>
    <contour>
      <point x="247" y="368" type="line"/>
      <point x="283" y="368" type="line"/>
      <point x="283" y="386" type="line"/>
      <point x="247" y="386" type="line"/>
    </contour>
    <contour>
      <point x="247" y="368" type="line"/>
      <point x="262" y="378" type="line"/>
      <point x="216" y="512" type="line"/>
      <point x="201" y="502" type="line"/>
    </contour>
    <contour>
      <point x="301" y="341" type="line"/>
      <point x="315" y="355" type="line"/>
      <point x="283" y="386" type="line"/>
      <point x="269" y="372" type="line"/>
    </contour>
    <contour>
      <point x="415" y="275" type="line"/>
      <point x="435" y="275" type="line"/>
      <point x="435" y="415" type="line"/>
      <point x="415" y="415" type="line"/>
    </contour>
    <contour>
      <point x="198" y="505" type="line"/>
      <point x="220" y="511" type="line"/>
      <point x="177" y="536" type="line"/>
      <point x="155" y="530" type="line"/>
    </contour>
    <contour>
      <point x="283" y="368" type="line"/>
      <point x="335" y="500" type="line"/>
      <point x="320" y="510" type="line"/>
      <point x="268" y="378" type="line"/>
    </contour>
    <contour>
      <point x="301" y="341" type="line"/>
      <point x="421" y="401" type="line"/>
      <point x="415" y="417" type="line"/>
      <point x="295" y="357" type="line"/>
    </contour>
    <contour>
      <point x="200" y="498" type="line"/>
      <point x="330" y="498" type="line"/>
      <point x="330" y="516" type="line"/>
      <point x="200" y="516" type="line"/>
    </contour>
    <contour>
      <point x="505" y="190" type="line"/>
      <point x="525" y="190" type="line"/>
      <point x="525" y="410" type="line"/>
      <point x="505" y="410" type="line"/>
    </contour>
    <contour>
      <point x="421" y="401" type="line"/>
      <point x="435" y="415" type="line"/>
      <point x="330" y="516" type="line"/>
      <point x="316" y="502" type="line"/>
    </contour>
    <contour>
      <point x="155" y="532" type="line"/>
      <point x="375" y="532" type="line"/>
      <point x="375" y="550" type="line"/>
      <point x="155" y="550" type="line"/>
    </contour>
    <contour>
      <point x="332" y="504" type="line"/>
      <point x="376" y="530" type="line"/>
      <point x="355" y="537" type="line"/>
      <point x="311" y="511" type="line"/>
    </contour>
    <contour>
      <point x="428" y="404" type="line"/>
      <point x="511" y="396" type="line"/>
      <point x="505" y="413" type="line"/>
      <point x="422" y="421" type="line"/>
    </contour>
    <contour>
      <point x="511" y="396" type="line"/>
      <point x="525" y="410" type="line"/>
      <point x="375" y="550" type="line"/>
      <point x="361" y="536" type="line"/>
    </contour>
    <contour>
      <point x="222" y="52" type="line"/>
      <point x="337" y="198" type="line"/>
      <point x="322" y="206" type="line"/>
      <point x="207" y="60" type="line"/>
    </contour>
    <contour>
      <point x="300" y="-31" type="line"/>
      <point x="395" y="-31" type="line"/>
      <point x="395" y="-13" type="line"/>
      <point x="300" y="-13" type="line"/>
    </contour>
    <contour>
      <point x="385" y="-31" type="line"/>
      <point x="405" y="-31" type="line"/>
      <point x="405" y="86" type="line"/>
      <point x="385" y="86" type="line"/>
    </contour>
    <contour>
      <point x="300" y="-31" type="line"/>
      <point x="314" y="-20" type="line"/>
      <point x="226" y="66" type="line"/>
      <point x="211" y="56" type="line"/>
    </contour>
    <contour>
      <point x="386" y="-22" type="line"/>
      <point x="399" y="-11" type="line"/>
      <point x="300" y="120" type="line"/>
      <point x="289" y="106" type="line"/>
    </contour>
    <contour>
      <point x="226" y="50" type="line"/>
      <point x="302" y="99" type="line"/>
      <point x="302" y="118" type="line"/>
      <point x="226" y="68" type="line"/>
    </contour>
    <contour>
      <point x="287" y="99" type="line"/>
      <point x="306" y="100" type="line"/>
      <point x="343" y="201" type="line"/>
      <point x="326" y="200" type="line"/>
    </contour>
  </outline>
</glyph>
<glyph name="R" format="2">
  <advance width="594"/>
  <unicode hex="0052"/>
  <anchor x="300" y="50" name="bottom"/>
  <anchor x="300" y="550" name="top"/>
  <outline>
    <contour>
      <point x="10" y="50" type="line"/>
      <point x="260" y="50" type="line"/>
      <point x="260" y="70" type="line"/>
      <point x="10" y="70" type="line"/>
    </contour>
    <contour>
      <point x="10" y="50" type="line"/>
      <point x="30" y="50" type="line"/>
      <point x="30" y="550" type="line"/>
      <point x="10" y="550" type="line"/>
    </contour>
    <contour>
      <point x="240" y="50" type="line"/>
      <point x="260" y="50" type="line"/>
      <point x="260" y="228" type="line"/>
      <point x="240" y="228" type="line"/>
    </contour>
    <contour>
      <point x="14" y="550" type="line"/>
      <point x="34" y="550" type="line"/>
    </contour>
    <contour>
      <point x="23" y="50" type="line"/>
      <point x="127" y="202" type="line"/>
      <point x="114" y="215" type="line"/>
      <point x="10" y="63" type="line"/>
    </contour>
    <contour>
      <point x="247" y="50" type="line"/>
      <point x="260" y="63" type="line"/>
      <point x="131" y="215" type="line"/>
      <point x="117" y="201" type="line"/>
    </contour>
    <contour>
      <point x="111" y="200" type="line"/>
      <point x="131" y="200" type="line"/>
      <point x="131" y="512" type="line"/>
      <point x="111" y="512" type="line"/>
    </contour>
    <contour>
      <point x="325" y="50" type="line"/>
      <point x="345" y="57" type="line"/>
      <point x="262" y="232" type="line"/>
      <point x="244" y="227" type="line"/>
    </contour>
    <contour>
      <point x="326" y="50" type="line"/>
      <point x="572" y="50" type="line"/>
      <point x="572" y="70" type="line"/>
      <point x="326" y="70" type="line"/>
    </contour>
    <contour>
      <point x="568" y="50" type="line"/>
      <point x="589" y="50" type="line"/>
      <point x="466" y="279" type="line"/>
      <point x="446" y="274" type="line"/>
    </contour>
    <contour>
      <point x="545" y="327" type="line"/>
      <point x="565" y="327" type="line"/>
      <point x="565" y="480" type="line"/>
      <point x="545" y="480" type="line"/>
    </contour>
    <contour>
      <point x="461" y="265" type="line"/>
      <point x="565" y="327" type="line"/>
      <point x="555" y="343" type="line"/>
      <point x="451" y="280" type="line"/>
    </contour>
    <contour>
      <point x="377" y="327" type="line"/>
      <point x="443" y="393" type="line"/>
      <point x="432" y="405" type="line"/>
      <point x="367" y="341" type="line"/>
    </contour>
    <contour>
      <point x="115" y="327" type="line"/>
      <point x="384" y="327" type="line"/>
      <point x="384" y="347" type="line"/>
      <point x="115" y="347" type="line"/>
    </contour>
    <contour>
      <point x="14" y="550" type="line"/>
      <point x="14" y="530" type="line"/>
      <point x="452" y="530" type="line"/>
      <point x="452" y="550" type="line"/>
    </contour>
    <contour>
      <point x="111" y="517" type="line"/>
      <point x="111" y="497" type="line"/>
      <point x="373" y="497" type="line"/>
      <point x="373" y="517" type="line"/>
    </contour>
    <contour>
      <point x="436" y="449" type="line"/>
      <point x="557" y="459" type="line"/>
      <point x="550" y="477" type="line"/>
      <point x="428" y="465" type="line"/>
    </contour>
    <contour>
      <point x="382" y="504" type="line"/>
      <point x="454" y="535" type="line"/>
      <point x="441" y="548" type="line"/>
      <point x="366" y="514" type="line"/>
    </contour>
    <contour>
      <point x="557" y="462" type="line"/>
      <point x="565" y="480" type="line"/>
      <point x="452" y="550" type="line"/>
      <point x="439" y="536" type="line"/>
    </contour>
    <contour>
      <point x="431" y="449" type="line"/>
      <point x="439" y="464" type="line"/>
      <point x="374" y="519" type="line"/>
      <point x="365" y="505" type="line"/>
    </contour>
    <contour>
      <point x="402" y="200" type="line"/>
      <point x="421" y="209" type="line"/>
      <point x="361" y="312" type="line"/>
      <point x="341" y="304" type="line"/>
    </contour>
    <contour>
      <point x="322" y="384" type="line"/>
      <point x="384" y="503" type="line"/>
      <point x="369" y="516" type="line"/>
      <point x="308" y="396" type="line"/>
    </contour>
    <contour>
      <point x="246" y="213" type="line"/>
      <point x="261" y="228" type="line"/>
      <point x="130" y="341" type="line"/>
      <point x="117" y="323" type="line"/>
    </contour>
    <contour>
      <point x="257" y="212" type="line"/>
      <point x="387" y="330" type="line"/>
      <point x="376" y="344" type="line"/>
      <point x="246" y="228" type="line"/>
    </contour>
    <contour>
      <point x="424" y="392" type="line"/>
      <point x="551" y="325" type="line"/>
      <point x="555" y="346" type="line"/>
      <point x="428" y="412" type="line"/>
    </contour>
    <contour>
      <point x="377" y="328" type="line"/>
      <point x="456" y="264" type="line"/>
      <point x="464" y="281" type="line"/>
      <point x="385" y="344" type="line"/>
    </contour>
    <contour>
      <point x="224" y="400" type="line"/>
      <point x="224" y="380" type="line"/>
      <point x="322" y="380" type="line"/>
      <point x="322" y="400" type="line"/>
    </contour>
    <contour>
      <point x="244" y="400" type="line"/>
      <point x="224" y="400" type="line"/>
      <point x="224" y="356" type="line"/>
      <point x="244" y="356" type="line"/>
    </contour>
    <contour>
      <point x="114" y="501" type="line"/>
      <point x="229" y="381" type="line"/>
      <point x="241" y="396" type="line"/>
      <point x="122" y="516" type="line"/>
    </contour>
    <contour>
      <point x="224" y="375" type="line"/>
      <point x="224" y="356" type="line"/>
      <point x="322" y="356" type="line"/>
      <point x="322" y="375" type="line"/>
    </contour>
    <contour>
      <point x="442" y="464" type="line"/>
      <point x="422" y="464" type="line"/>
      <point x="422" y="395" type="line"/>
      <point x="442" y="395" type="line"/>
    </contour>
    <contour>
      <point x="342" y="379" type="line"/>
      <point x="325" y="379" type="line"/>
      <point x="325" y="375" type="line"/>
      <point x="342" y="375" type="line"/>
    </contour>
    <contour>
      <point x="124" y="335" type="line"/>
      <point x="242" y="357" type="line"/>
      <point x="235" y="379" type="line"/>
      <point x="116" y="351" type="line"/>
    </contour>
    <contour>
      <point x="310" y="369" type="line"/>
      <point x="322" y="355" type="line"/>
      <point x="341" y="375" type="line"/>
      <point x="334" y="390" type="line"/>
    </contour>
    <contour>
      <point x="310" y="386" type="line"/>
      <point x="330" y="369" type="line"/>
      <point x="342" y="378" type="line"/>
      <point x="322" y="400" type="line"/>
    </contour>
    <contour>
      <point x="403" y="225" type="line"/>
      <point x="325" y="67" type="line"/>
      <point x="342" y="59" type="line"/>
      <point x="417" y="215" type="line"/>
    </contour>
    <contour>
      <point x="561" y="61" type="line"/>
      <point x="572" y="75" type="line"/>
      <point x="416" y="217" type="line"/>
      <point x="403" y="203" type="line"/>
    </contour>
    <contour>
      <point x="306" y="362" type="line"/>
      <point x="376" y="329" type="line"/>
      <point x="387" y="340" type="line"/>
      <point x="318" y="372" type="line"/>
    </contour>
    <contour>
      <point x="332" y="367" type="line"/>
      <point x="440" y="452" type="line"/>
      <point x="430" y="468" type="line"/>
      <point x="326" y="385" type="line"/>
    </contour>
    <contour>
      <point x="327" y="384" type="line"/>
      <point x="318" y="363" type="line"/>
      <point x="428" y="388" type="line"/>
      <point x="436" y="406" type="line"/>
    </contour>
    <contour>
      <point x="125" y="489" type="line"/>
      <point x="133" y="511" type="line"/>
      <point x="36" y="538" type="line"/>
      <point x="20" y="525" type="line"/>
    </contour>
  </outline>
</glyph>
<glyph name="S" format="2">
  <advance width="437"/>
  <unicode hex="0053"/>
  <anchor x="219" y="50" name="bottom"/>
  <anchor x="219" y="550" name="top"/>
  <outline>
    <contour>
      <point x="313" y="292" type="line"/>
      <point x="323" y="307" type="line"/>
      <point x="106" y="406" type="line"/>
      <point x="96" y="390" type="line"/>
    </contour>
    <contour>
      <point x="140" y="50" type="line"/>
      <point x="150" y="68" type="line"/>
      <point x="15" y="170" type="line"/>
      <point x="5" y="152" type="line"/>
    </contour>
    <contour>
      <point x="5" y="152" type="line"/>
      <point x="25" y="152" type="line"/>
      <point x="25" y="248" type="line"/>
      <point x="5" y="248" type="line"/>
    </contour>
    <contour>
      <point x="140" y="50" type="line"/>
      <point x="280" y="50" type="line"/>
      <point x="280" y="70" type="line"/>
      <point x="140" y="70" type="line"/>
    </contour>
    <contour>
      <point x="165" y="190" type="line"/>
      <point x="175" y="208" type="line"/>
      <point x="86" y="233" type="line"/>
      <point x="76" y="220" type="line"/>
    </contour>
    <contour>
      <point x="163" y="196" type="line"/>
      <point x="181" y="190" type="line"/>
      <point x="187" y="205" type="line"/>
      <point x="169" y="211" type="line"/>
    </contour>
    <contour>
      <point x="76" y="220" type="line"/>
      <point x="96" y="220" type="line"/>
      <point x="96" y="241" type="line"/>
      <point x="76" y="241" type="line"/>
    </contour>
    <contour>
      <point x="9" y="228" type="line"/>
      <point x="161" y="228" type="line"/>
      <point x="161" y="248" type="line"/>
      <point x="9" y="248" type="line"/>
    </contour>
    <contour>
      <point x="173" y="188" type="line"/>
      <point x="239" y="188" type="line"/>
      <point x="239" y="208" type="line"/>
      <point x="173" y="208" type="line"/>
    </contour>
    <contour>
      <point x="268" y="61" type="line"/>
      <point x="286" y="70" type="line"/>
      <point x="248" y="204" type="line"/>
      <point x="231" y="196" type="line"/>
    </contour>
    <contour>
      <point x="175" y="203" type="line"/>
      <point x="186" y="219" type="line"/>
      <point x="157" y="231" type="line"/>
      <point x="141" y="221" type="line"/>
    </contour>
    <contour>
      <point x="141" y="221" type="line"/>
      <point x="161" y="221" type="line"/>
      <point x="161" y="248" type="line"/>
      <point x="141" y="248" type="line"/>
    </contour>
    <contour>
      <point x="173" y="202" type="line"/>
      <point x="204" y="202" type="line"/>
      <point x="204" y="220" type="line"/>
      <point x="173" y="220" type="line"/>
    </contour>
    <contour>
      <point x="204" y="202" type="line"/>
      <point x="228" y="214" type="line"/>
      <point x="208" y="225" type="line"/>
      <point x="194" y="219" type="line"/>
    </contour>
    <contour>
      <point x="205" y="218" type="line"/>
      <point x="228" y="227" type="line"/>
      <point x="15" y="311" type="line"/>
      <point x="5" y="296" type="line"/>
    </contour>
    <contour>
      <point x="208" y="205" type="line"/>
      <point x="228" y="214" type="line"/>
      <point x="228" y="230" type="line"/>
      <point x="208" y="230" type="line"/>
    </contour>
    <contour>
      <point x="244" y="188" type="line"/>
      <point x="324" y="240" type="line"/>
      <point x="314" y="255" type="line"/>
      <point x="231" y="203" type="line"/>
    </contour>
    <contour>
      <point x="5" y="296" type="line"/>
      <point x="25" y="296" type="line"/>
      <point x="25" y="434" type="line"/>
      <point x="5" y="434" type="line"/>
    </contour>
    <contour>
      <point x="280" y="50" type="line"/>
      <point x="432" y="164" type="line"/>
      <point x="422" y="179" type="line"/>
      <point x="269" y="66" type="line"/>
    </contour>
    <contour>
      <point x="418" y="157" type="line"/>
      <point x="423" y="179" type="line"/>
      <point x="312" y="262" type="line"/>
      <point x="307" y="240" type="line"/>
    </contour>
    <contour>
      <point x="303" y="243" type="line"/>
      <point x="323" y="243" type="line"/>
      <point x="323" y="309" type="line"/>
      <point x="303" y="309" type="line"/>
    </contour>
    <contour>
      <point x="90" y="394" type="line"/>
      <point x="110" y="394" type="line"/>
      <point x="110" y="454" type="line"/>
      <point x="90" y="454" type="line"/>
    </contour>
    <contour>
      <point x="108" y="391" type="line"/>
      <point x="222" y="383" type="line"/>
      <point x="216" y="399" type="line"/>
      <point x="102" y="408" type="line"/>
    </contour>
    <contour>
      <point x="218" y="391" type="line"/>
      <point x="223" y="407" type="line"/>
      <point x="104" y="459" type="line"/>
      <point x="100" y="442" type="line"/>
    </contour>
    <contour>
      <point x="16" y="418" type="line"/>
      <point x="161" y="534" type="line"/>
      <point x="150" y="550" type="line"/>
      <point x="5" y="434" type="line"/>
    </contour>
    <contour>
      <point x="306" y="293" type="line"/>
      <point x="424" y="287" type="line"/>
      <point x="417" y="304" type="line"/>
      <point x="299" y="310" type="line"/>
    </contour>
    <contour>
      <point x="412" y="164" type="line"/>
      <point x="432" y="164" type="line"/>
      <point x="432" y="298" type="line"/>
      <point x="412" y="298" type="line"/>
    </contour>
    <contour>
      <point x="201" y="385" type="line"/>
      <point x="221" y="385" type="line"/>
      <point x="221" y="404" type="line"/>
      <point x="201" y="410" type="line"/>
    </contour>
    <contour>
      <point x="100" y="439" type="line"/>
      <point x="179" y="504" type="line"/>
      <point x="169" y="519" type="line"/>
      <point x="90" y="454" type="line"/>
    </contour>
    <contour>
      <point x="432" y="283" type="line"/>
      <point x="432" y="304" type="line"/>
      <point x="211" y="400" type="line"/>
      <point x="201" y="384" type="line"/>
    </contour>
    <contour>
      <point x="214" y="388" type="line"/>
      <point x="239" y="407" type="line"/>
      <point x="229" y="422" type="line"/>
      <point x="203" y="409" type="line"/>
    </contour>
    <contour>
      <point x="229" y="402" type="line"/>
      <point x="258" y="402" type="line"/>
      <point x="258" y="422" type="line"/>
      <point x="229" y="422" type="line"/>
    </contour>
    <contour>
      <point x="269" y="373" type="line"/>
      <point x="289" y="373" type="line"/>
      <point x="289" y="406" type="line"/>
      <point x="269" y="400" type="line"/>
    </contour>
    <contour>
      <point x="280" y="391" type="line"/>
      <point x="291" y="406" type="line"/>
      <point x="260" y="422" type="line"/>
      <point x="250" y="407" type="line"/>
    </contour>
    <contour>
      <point x="248" y="402" type="line"/>
      <point x="268" y="402" type="line"/>
      <point x="278" y="499" type="line"/>
      <point x="258" y="499" type="line"/>
    </contour>
    <contour>
      <point x="169" y="499" type="line"/>
      <point x="273" y="499" type="line"/>
      <point x="273" y="519" type="line"/>
      <point x="169" y="519" type="line"/>
    </contour>
    <contour>
      <point x="269" y="373" type="line"/>
      <point x="410" y="373" type="line"/>
      <point x="410" y="393" type="line"/>
      <point x="269" y="393" type="line"/>
    </contour>
    <contour>
      <point x="357" y="424" type="line"/>
      <point x="374" y="435" type="line"/>
      <point x="279" y="516" type="line"/>
      <point x="267" y="500" type="line"/>
    </contour>
    <contour>
      <point x="150" y="530" type="line"/>
      <point x="280" y="530" type="line"/>
      <point x="280" y="550" type="line"/>
      <point x="150" y="550" type="line"/>
    </contour>
    <contour>
      <point x="362" y="440" type="line"/>
      <point x="370" y="424" type="line"/>
      <point x="404" y="432" type="line"/>
      <point x="394" y="448" type="line"/>
    </contour>
    <contour>
      <point x="277" y="495" type="line"/>
      <point x="289" y="539" type="line"/>
      <point x="271" y="545" type="line"/>
      <point x="259" y="501" type="line"/>
    </contour>
    <contour>
      <point x="390" y="373" type="line"/>
      <point x="410" y="373" type="line"/>
      <point x="410" y="443" type="line"/>
      <point x="390" y="443" type="line"/>
    </contour>
    <contour>
      <point x="400" y="428" type="line"/>
      <point x="410" y="443" type="line"/>
      <point x="280" y="550" type="line"/>
      <point x="270" y="534" type="line"/>
    </contour>
    <contour>
      <point x="181" y="190" type="line"/>
      <point x="163" y="196" type="line"/>
      <point x="136" y="69" type="line"/>
      <point x="153" y="63" type="line"/>
    </contour>
    <contour>
      <point x="370" y="424" type="line"/>
      <point x="362" y="440" type="line"/>
      <point x="273" y="404" type="line"/>
      <point x="281" y="390" type="line"/>
    </contour>
    <contour>
      <point x="101" y="442" type="line"/>
      <point x="104" y="459" type="line"/>
      <point x="10" y="434" type="line"/>
      <point x="6" y="417" type="line"/>
    </contour>
    <contour>
      <point x="25" y="298" type="line"/>
      <point x="110" y="394" type="line"/>
      <point x="102" y="410" type="line"/>
      <point x="17" y="315" type="line"/>
    </contour>
    <contour>
      <point x="232" y="221" type="line"/>
      <point x="311" y="284" type="line"/>
      <point x="305" y="301" type="line"/>
      <point x="208" y="225" type="line"/>
    </contour>
    <contour>
      <point x="309" y="237" type="line"/>
      <point x="314" y="255" type="line"/>
      <point x="229" y="232" type="line"/>
      <point x="209" y="209" type="line"/>
    </contour>
  </outline>
</glyph>
<glyph name="W" format="2">
  <advance width="927"/>
  <unicode hex="0057"/>
  <anchor x="501" y="50" name="bottom"/>
  <anchor x="501" y="550" name="top"/>
  <outline>
    <contour>
      <point x="178" y="50" type="line"/>
      <point x="199" y="50" type="line"/>
      <point x="23" y="550" type="line"/>
      <point x="2" y="550" type="line"/>
    </contour>
    <contour>
      <point x="8" y="530" type="line"/>
      <point x="251" y="530" type="line"/>
      <point x="246" y="550" type="line"/>
      <point x="2" y="550" type="line"/>
    </contour>
    <contour>
      <point x="320" y="295" type="line"/>
      <point x="332" y="317" type="line"/>
      <point x="246" y="550" type="line"/>
      <point x="224" y="550" type="line"/>
    </contour>
    <contour>
      <point x="272" y="191" type="line"/>
      <point x="290" y="178" type="line"/>
      <point x="408" y="550" type="line"/>
      <point x="388" y="550" type="line"/>
    </contour>
    <contour>
      <point x="178" y="50" type="line"/>
      <point x="391" y="50" type="line"/>
      <point x="391" y="70" type="line"/>
      <point x="178" y="70" type="line"/>
    </contour>
    <contour>
      <point x="264" y="180" type="line"/>
      <point x="283" y="189" type="line"/>
      <point x="161" y="494" type="line"/>
      <point x="139" y="494" type="line"/>
    </contour>
    <contour>
      <point x="391" y="50" type="line"/>
      <point x="472" y="320" type="line"/>
      <point x="458" y="344" type="line"/>
      <point x="371" y="50" type="line"/>
    </contour>
    <contour>
      <point x="154" y="475" type="line"/>
      <point x="246" y="531" type="line"/>
      <point x="234" y="549" type="line"/>
      <point x="142" y="493" type="line"/>
    </contour>
    <contour>
      <point x="196" y="61" type="line"/>
      <point x="284" y="185" type="line"/>
      <point x="273" y="202" type="line"/>
      <point x="182" y="74" type="line"/>
    </contour>
    <contour>
      <point x="378" y="58" type="line"/>
      <point x="390" y="74" type="line"/>
      <point x="278" y="200" type="line"/>
      <point x="266" y="184" type="line"/>
    </contour>
    <contour>
      <point x="537" y="50" type="line"/>
      <point x="557" y="52" type="line"/>
      <point x="409" y="546" type="line"/>
      <point x="396" y="521" type="line"/>
    </contour>
    <contour>
      <point x="749" y="50" type="line"/>
      <point x="925" y="550" type="line"/>
      <point x="905" y="550" type="line"/>
      <point x="729" y="50" type="line"/>
    </contour>
    <contour>
      <point x="543" y="50" type="line"/>
      <point x="747" y="50" type="line"/>
      <point x="747" y="70" type="line"/>
      <point x="543" y="70" type="line"/>
    </contour>
    <contour>
      <point x="696" y="181" type="line"/>
      <point x="801" y="491" type="line"/>
      <point x="782" y="492" type="line"/>
      <point x="679" y="190" type="line"/>
    </contour>
    <contour>
      <point x="733" y="59" type="line"/>
      <point x="748" y="72" type="line"/>
      <point x="693" y="198" type="line"/>
      <point x="679" y="184" type="line"/>
    </contour>
    <contour>
      <point x="394" y="530" type="line"/>
      <point x="600" y="530" type="line"/>
      <point x="595" y="550" type="line"/>
      <point x="388" y="550" type="line"/>
    </contour>
    <contour>
      <point x="673" y="290" type="line"/>
      <point x="682" y="322" type="line"/>
      <point x="607" y="550" type="line"/>
      <point x="585" y="550" type="line"/>
    </contour>
    <contour>
      <point x="605" y="127" type="line"/>
      <point x="626" y="133" type="line"/>
      <point x="767" y="550" type="line"/>
      <point x="746" y="550" type="line"/>
    </contour>
    <contour>
      <point x="605" y="127" type="line"/>
      <point x="623" y="135" type="line"/>
      <point x="514" y="491" type="line"/>
      <point x="493" y="491" type="line"/>
    </contour>
    <contour>
      <point x="751" y="530" type="line"/>
      <point x="909" y="530" type="line"/>
      <point x="915" y="550" type="line"/>
      <point x="758" y="550" type="line"/>
    </contour>
    <contour>
      <point x="507" y="475" type="line"/>
      <point x="603" y="530" type="line"/>
      <point x="592" y="545" type="line"/>
      <point x="496" y="493" type="line"/>
    </contour>
    <contour>
      <point x="791" y="479" type="line"/>
      <point x="914" y="529" type="line"/>
      <point x="910" y="545" type="line"/>
      <point x="785" y="495" type="line"/>
    </contour>
    <contour>
      <point x="152" y="474" type="line"/>
      <point x="163" y="492" type="line"/>
      <point x="33" y="548" type="line"/>
      <point x="22" y="530" type="line"/>
    </contour>
    <contour>
      <point x="504" y="475" type="line"/>
      <point x="515" y="493" type="line"/>
      <point x="404" y="545" type="line"/>
      <point x="393" y="530" type="line"/>
    </contour>
    <contour>
      <point x="784" y="482" type="line"/>
      <point x="795" y="498" type="line"/>
      <point x="761" y="547" type="line"/>
      <point x="750" y="531" type="line"/>
    </contour>
    <contour>
      <point x="331" y="126" type="line"/>
      <point x="432" y="441" type="line"/>
      <point x="420" y="470" type="line"/>
      <point x="316" y="141" type="line"/>
    </contour>
    <contour>
      <point x="692" y="178" type="line"/>
      <point x="684" y="197" type="line"/>
      <point x="534" y="78" type="line"/>
      <point x="544" y="62" type="line"/>
    </contour>
  </outline>
</glyph>
<glyph name="backslash" format="2">
  <advance width="352"/>
  <unicode hex="005C"/>
  <outline>
    <contour>
      <point x="334" y="10" type="line"/>
      <point x="352" y="10" type="line"/>
      <point x="98" y="590" type="line"/>
      <point x="81" y="590" type="line"/>
    </contour>
    <contour>
      <point x="253" y="10" type="line"/>
      <point x="271" y="10" type="line"/>
      <point x="18" y="590" type="line"/>
      <point x="0" y="590" type="line"/>
    </contour>
    <contour>
      <point x="71" y="545" type="line"/>
      <point x="101" y="575" type="line"/>
      <point x="87" y="590" type="line"/>
      <point x="59" y="560" type="line"/>
    </contour>
    <contour>
      <point x="66" y="544" type="line"/>
      <point x="72" y="559" type="line"/>
      <point x="13" y="590" type="line"/>
      <point x="7" y="574" type="line"/>
    </contour>
    <contour>
      <point x="98" y="570" type="line"/>
      <point x="98" y="590" type="line"/>
      <point x="7" y="590" type="line"/>
      <point x="14" y="570" type="line"/>
    </contour>
    <contour>
      <point x="269" y="95" type="line"/>
      <point x="251" y="25" type="line"/>
      <point x="265" y="10" type="line"/>
      <point x="281" y="80" type="line"/>
    </contour>
    <contour>
      <point x="274" y="96" type="line"/>
      <point x="267" y="81" type="line"/>
      <point x="339" y="10" type="line"/>
      <point x="345" y="26" type="line"/>
    </contour>
    <contour>
      <point x="253" y="30" type="line"/>
      <point x="253" y="10" type="line"/>
      <point x="344" y="10" type="line"/>
      <point x="344" y="30" type="line"/>
    </contour>
    <contour>
      <point x="267" y="74" type="line"/>
      <point x="282" y="85" type="line"/>
      <point x="70" y="568" type="line"/>
      <point x="55" y="562" type="line"/>
    </contour>
  </outline>
</glyph>
<glyph name="AE" format="2">
  <advance width="761"/>
  <unicode hex="00C6"/>
  <anchor x="381" y="0" name="bottom"/>
  <anchor x="450" y="550" name="top"/>
  <outline>
    <contour>
      <point x="5" y="50" type="line"/>
      <point x="25" y="50" type="line"/>
      <point x="218" y="545" type="line"/>
      <point x="199" y="550" type="line"/>
    </contour>
    <contour>
      <point x="11" y="50" type="line"/>
      <point x="195" y="50" type="line"/>
      <point x="195" y="70" type="line"/>
      <point x="21" y="70" type="line"/>
    </contour>
    <contour>
      <point x="26" y="51" type="line"/>
      <point x="134" y="173" type="line"/>
      <point x="119" y="186" type="line"/>
      <point x="12" y="65" type="line"/>
    </contour>
    <contour>
      <point x="184" y="51" type="line"/>
      <point x="198" y="65" type="line"/>
      <point x="139" y="186" type="line"/>
      <point x="124" y="173" type="line"/>
    </contour>
    <contour>
      <point x="195" y="50" type="line"/>
      <point x="219" y="141" type="line"/>
      <point x="200" y="146" type="line"/>
      <point x="176" y="55" type="line"/>
    </contour>
    <contour>
      <point x="204" y="130" type="line"/>
      <point x="218" y="144" type="line"/>
      <point x="154" y="237" type="line"/>
      <point x="139" y="224" type="line"/>
    </contour>
    <contour>
      <point x="207" y="130" type="line"/>
      <point x="312" y="130" type="line"/>
      <point x="312" y="150" type="line"/>
      <point x="207" y="150" type="line"/>
    </contour>
    <contour>
      <point x="296" y="50" type="line"/>
      <point x="316" y="50" type="line"/>
      <point x="316" y="144" type="line"/>
      <point x="296" y="144" type="line"/>
    </contour>
    <contour>
      <point x="146" y="223" type="line"/>
      <point x="261" y="250" type="line"/>
      <point x="253" y="268" type="line"/>
      <point x="147" y="245" type="line"/>
    </contour>
    <contour>
      <point x="309" y="50" type="line"/>
      <point x="421" y="209" type="line"/>
      <point x="408" y="222" type="line"/>
      <point x="296" y="63" type="line"/>
    </contour>
    <contour>
      <point x="150" y="227" type="line"/>
      <point x="411" y="237" type="line"/>
      <point x="411" y="257" type="line"/>
      <point x="150" y="247" type="line"/>
    </contour>
    <contour>
      <point x="310" y="130" type="line"/>
      <point x="421" y="236" type="line"/>
      <point x="405" y="249" type="line"/>
      <point x="296" y="144" type="line"/>
    </contour>
    <contour>
      <point x="243" y="248" type="line"/>
      <point x="316" y="248" type="line"/>
      <point x="306" y="268" type="line"/>
      <point x="253" y="268" type="line"/>
    </contour>
    <contour>
      <point x="135" y="173" type="line"/>
      <point x="276" y="518" type="line"/>
      <point x="256" y="520" type="line"/>
      <point x="116" y="178" type="line"/>
    </contour>
    <contour>
      <point x="306" y="50" type="line"/>
      <point x="746" y="50" type="line"/>
      <point x="746" y="70" type="line"/>
      <point x="306" y="70" type="line"/>
    </contour>
    <contour>
      <point x="407" y="243" type="line"/>
      <point x="416" y="256" type="line"/>
      <point x="306" y="268" type="line"/>
      <point x="297" y="250" type="line"/>
    </contour>
    <contour>
      <point x="316" y="254" type="line"/>
      <point x="316" y="401" type="line"/>
      <point x="296" y="385" type="line"/>
      <point x="296" y="255" type="line"/>
    </contour>
    <contour>
      <point x="427" y="211" type="line"/>
      <point x="535" y="234" type="line"/>
      <point x="522" y="250" type="line"/>
      <point x="412" y="226" type="line"/>
    </contour>
    <contour>
      <point x="412" y="207" type="line"/>
      <point x="636" y="207" type="line"/>
      <point x="636" y="227" type="line"/>
      <point x="412" y="227" type="line"/>
    </contour>
    <contour>
      <point x="255" y="250" type="line"/>
      <point x="375" y="545" type="line"/>
      <point x="356" y="550" type="line"/>
      <point x="236" y="256" type="line"/>
    </contour>
    <contour>
      <point x="406" y="217" type="line"/>
      <point x="426" y="217" type="line"/>
      <point x="426" y="501" type="line"/>
      <point x="406" y="501" type="line"/>
    </contour>
    <contour>
      <point x="516" y="242" type="line"/>
      <point x="536" y="242" type="line"/>
      <point x="536" y="268" type="line"/>
      <point x="516" y="268" type="line"/>
    </contour>
    <contour>
      <point x="736" y="60" type="line"/>
      <point x="749" y="72" type="line"/>
      <point x="631" y="227" type="line"/>
      <point x="616" y="216" type="line"/>
    </contour>
    <contour>
      <point x="526" y="253" type="line"/>
      <point x="539" y="267" type="line"/>
      <point x="425" y="372" type="line"/>
      <point x="410" y="359" type="line"/>
    </contour>
    <contour>
      <point x="257" y="506" type="line"/>
      <point x="274" y="516" type="line"/>
      <point x="215" y="549" type="line"/>
      <point x="197" y="540" type="line"/>
    </contour>
    <contour>
      <point x="546" y="355" type="line"/>
      <point x="546" y="375" type="line"/>
      <point x="416" y="375" type="line"/>
      <point x="416" y="355" type="line"/>
    </contour>
    <contour>
      <point x="512" y="230" type="line"/>
      <point x="746" y="230" type="line"/>
      <point x="746" y="250" type="line"/>
      <point x="522" y="250" type="line"/>
    </contour>
    <contour>
      <point x="421" y="368" type="line"/>
      <point x="539" y="380" type="line"/>
      <point x="526" y="397" type="line"/>
      <point x="411" y="385" type="line"/>
    </contour>
    <contour>
      <point x="266" y="502" type="line"/>
      <point x="366" y="534" type="line"/>
      <point x="351" y="550" type="line"/>
      <point x="259" y="521" type="line"/>
    </contour>
    <contour>
      <point x="633" y="207" type="line"/>
      <point x="749" y="224" type="line"/>
      <point x="736" y="239" type="line"/>
      <point x="616" y="225" type="line"/>
    </contour>
    <contour>
      <point x="526" y="255" type="line"/>
      <point x="656" y="255" type="line"/>
      <point x="656" y="275" type="line"/>
      <point x="526" y="275" type="line"/>
    </contour>
    <contour>
      <point x="199" y="530" type="line"/>
      <point x="385" y="530" type="line"/>
      <point x="385" y="550" type="line"/>
      <point x="199" y="550" type="line"/>
    </contour>
    <contour>
      <point x="646" y="255" type="line"/>
      <point x="659" y="267" type="line"/>
      <point x="541" y="375" type="line"/>
      <point x="526" y="364" type="line"/>
    </contour>
    <contour>
      <point x="736" y="50" type="line"/>
      <point x="756" y="50" type="line"/>
      <point x="756" y="250" type="line"/>
      <point x="736" y="250" type="line"/>
    </contour>
    <contour>
      <point x="522" y="382" type="line"/>
      <point x="535" y="395" type="line"/>
      <point x="427" y="495" type="line"/>
      <point x="412" y="484" type="line"/>
    </contour>
    <contour>
      <point x="516" y="380" type="line"/>
      <point x="536" y="380" type="line"/>
      <point x="536" y="400" type="line"/>
      <point x="516" y="400" type="line"/>
    </contour>
    <contour>
      <point x="408" y="486" type="line"/>
      <point x="421" y="499" type="line"/>
      <point x="375" y="545" type="line"/>
      <point x="362" y="532" type="line"/>
    </contour>
    <contour>
      <point x="543" y="356" type="line"/>
      <point x="659" y="376" type="line"/>
      <point x="646" y="391" type="line"/>
      <point x="526" y="373" type="line"/>
    </contour>
    <contour>
      <point x="646" y="255" type="line"/>
      <point x="666" y="255" type="line"/>
      <point x="666" y="395" type="line"/>
      <point x="646" y="395" type="line"/>
    </contour>
    <contour>
      <point x="526" y="380" type="line"/>
      <point x="666" y="380" type="line"/>
      <point x="666" y="400" type="line"/>
      <point x="526" y="400" type="line"/>
    </contour>
    <contour>
      <point x="412" y="483" type="line"/>
      <point x="636" y="483" type="line"/>
      <point x="636" y="503" type="line"/>
      <point x="412" y="503" type="line"/>
    </contour>
    <contour>
      <point x="522" y="380" type="line"/>
      <point x="746" y="380" type="line"/>
      <point x="746" y="400" type="line"/>
      <point x="522" y="400" type="line"/>
    </contour>
    <contour>
      <point x="336" y="530" type="line"/>
      <point x="746" y="530" type="line"/>
      <point x="746" y="550" type="line"/>
      <point x="336" y="550" type="line"/>
    </contour>
    <contour>
      <point x="736" y="387" type="line"/>
      <point x="749" y="402" type="line"/>
      <point x="633" y="503" type="line"/>
      <point x="615" y="494" type="line"/>
    </contour>
    <contour>
      <point x="630" y="486" type="line"/>
      <point x="749" y="530" type="line"/>
      <point x="732" y="543" type="line"/>
      <point x="615" y="500" type="line"/>
    </contour>
    <contour>
      <point x="736" y="380" type="line"/>
      <point x="756" y="380" type="line"/>
      <point x="756" y="550" type="line"/>
      <point x="736" y="550" type="line"/>
    </contour>
  </outline>
</glyph>
<glyph name="Eth" format="2">
  <advance width="603"/>
  <unicode hex="00D0"/>
  <outline>
    <contour>
      <point x="253" y="378" type="line"/>
      <point x="266" y="394" type="line"/>
      <point x="150" y="506" type="line"/>
      <point x="140" y="487" type="line"/>
    </contour>
    <contour>
      <point x="55" y="57" type="line"/>
      <point x="154" y="208" type="line"/>
      <point x="129" y="211" type="line"/>
      <point x="36" y="66" type="line"/>
    </contour>
    <contour>
      <point x="51" y="50" type="line"/>
      <point x="432" y="50" type="line"/>
      <point x="437" y="70" type="line"/>
      <point x="51" y="70" type="line"/>
    </contour>
    <contour>
      <point x="33" y="389" type="line"/>
      <point x="52" y="389" type="line"/>
      <point x="52" y="550" type="line"/>
      <point x="33" y="550" type="line"/>
    </contour>
    <contour>
      <point x="157" y="200" type="line"/>
      <point x="279" y="221" type="line"/>
      <point x="251" y="235" type="line"/>
      <point x="131" y="215" type="line"/>
    </contour>
    <contour>
      <point x="145" y="195" type="line"/>
      <point x="388" y="195" type="line"/>
      <point x="388" y="213" type="line"/>
      <point x="145" y="213" type="line"/>
    </contour>
    <contour>
      <point x="127" y="195" type="line"/>
      <point x="147" y="195" type="line"/>
      <point x="147" y="499" type="line"/>
      <point x="127" y="499" type="line"/>
    </contour>
    <contour>
      <point x="250" y="217" type="line"/>
      <point x="340" y="217" type="line"/>
      <point x="331" y="236" type="line"/>
      <point x="250" y="236" type="line"/>
    </contour>
    <contour>
      <point x="419" y="59" type="line"/>
      <point x="439" y="66" type="line"/>
      <point x="395" y="209" type="line"/>
      <point x="378" y="200" type="line"/>
    </contour>
    <contour>
      <point x="380" y="198" type="line"/>
      <point x="397" y="208" type="line"/>
      <point x="338" y="232" type="line"/>
      <point x="323" y="222" type="line"/>
    </contour>
    <contour>
      <point x="337" y="222" type="line"/>
      <point x="375" y="261" type="line"/>
      <point x="360" y="273" type="line"/>
      <point x="322" y="234" type="line"/>
    </contour>
    <contour>
      <point x="250" y="384" type="line"/>
      <point x="270" y="384" type="line"/>
      <point x="270" y="382" type="line"/>
      <point x="250" y="382" type="line"/>
    </contour>
    <contour>
      <point x="391" y="194" type="line"/>
      <point x="479" y="265" type="line"/>
      <point x="461" y="274" type="line"/>
      <point x="379" y="209" type="line"/>
    </contour>
    <contour>
      <point x="432" y="50" type="line"/>
      <point x="598" y="196" type="line"/>
      <point x="578" y="205" type="line"/>
      <point x="418" y="64" type="line"/>
    </contour>
    <contour>
      <point x="467" y="260" type="line"/>
      <point x="474" y="277" type="line"/>
      <point x="362" y="272" type="line"/>
      <point x="358" y="255" type="line"/>
    </contour>
    <contour>
      <point x="358" y="255" type="line"/>
      <point x="378" y="257" type="line"/>
      <point x="378" y="355" type="line"/>
      <point x="358" y="355" type="line"/>
    </contour>
    <contour>
      <point x="580" y="190" type="line"/>
      <point x="591" y="208" type="line"/>
      <point x="474" y="277" type="line"/>
      <point x="468" y="259" type="line"/>
    </contour>
    <contour>
      <point x="252" y="379" type="line"/>
      <point x="329" y="379" type="line"/>
      <point x="329" y="398" type="line"/>
      <point x="252" y="398" type="line"/>
    </contour>
    <contour>
      <point x="365" y="341" type="line"/>
      <point x="379" y="356" type="line"/>
      <point x="332" y="397" type="line"/>
      <point x="320" y="382" type="line"/>
    </contour>
    <contour>
      <point x="130" y="490" type="line"/>
      <point x="376" y="490" type="line"/>
      <point x="376" y="508" type="line"/>
      <point x="130" y="508" type="line"/>
    </contour>
    <contour>
      <point x="459" y="265" type="line"/>
      <point x="479" y="265" type="line"/>
      <point x="479" y="414" type="line"/>
      <point x="459" y="414" type="line"/>
    </contour>
    <contour>
      <point x="334" y="382" type="line"/>
      <point x="387" y="498" type="line"/>
      <point x="369" y="508" type="line"/>
      <point x="316" y="389" type="line"/>
    </contour>
    <contour>
      <point x="49" y="530" type="line"/>
      <point x="439" y="530" type="line"/>
      <point x="443" y="550" type="line"/>
      <point x="49" y="550" type="line"/>
    </contour>
    <contour>
      <point x="365" y="337" type="line"/>
      <point x="472" y="407" type="line"/>
      <point x="458" y="422" type="line"/>
      <point x="359" y="354" type="line"/>
    </contour>
    <contour>
      <point x="470" y="399" type="line"/>
      <point x="480" y="414" type="line"/>
      <point x="376" y="505" type="line"/>
      <point x="365" y="490" type="line"/>
    </contour>
    <contour>
      <point x="598" y="196" type="line"/>
      <point x="598" y="421" type="line"/>
      <point x="578" y="412" type="line"/>
      <point x="578" y="200" type="line"/>
    </contour>
    <contour>
      <point x="384" y="494" type="line"/>
      <point x="441" y="530" type="line"/>
      <point x="421" y="536" type="line"/>
      <point x="368" y="506" type="line"/>
    </contour>
    <contour>
      <point x="473" y="406" type="line"/>
      <point x="581" y="409" type="line"/>
      <point x="575" y="428" type="line"/>
      <point x="463" y="423" type="line"/>
    </contour>
    <contour>
      <point x="579" y="411" type="line"/>
      <point x="598" y="421" type="line"/>
      <point x="442" y="550" type="line"/>
      <point x="430" y="535" type="line"/>
    </contour>
    <contour>
      <point x="135" y="490" type="line"/>
      <point x="148" y="508" type="line"/>
      <point x="50" y="542" type="line"/>
      <point x="40" y="525" type="line"/>
    </contour>
    <contour>
      <point x="48" y="352" type="line"/>
      <point x="63" y="362" type="line"/>
      <point x="21" y="398" type="line"/>
      <point x="7" y="387" type="line"/>
    </contour>
    <contour>
      <point x="5" y="248" type="line"/>
      <point x="24" y="248" type="line"/>
      <point x="24" y="398" type="line"/>
      <point x="5" y="398" type="line"/>
    </contour>
    <contour>
      <point x="48" y="363" type="line"/>
      <point x="7" y="259" type="line"/>
      <point x="21" y="248" type="line"/>
      <point x="63" y="353" type="line"/>
    </contour>
    <contour>
      <point x="45" y="398" type="line"/>
      <point x="7" y="398" type="line"/>
      <point x="7" y="380" type="line"/>
      <point x="45" y="380" type="line"/>
    </contour>
    <contour>
      <point x="141" y="366" type="line"/>
      <point x="46" y="366" type="line"/>
      <point x="46" y="349" type="line"/>
      <point x="141" y="349" type="line"/>
    </contour>
    <contour>
      <point x="45" y="269" type="line"/>
      <point x="7" y="269" type="line"/>
      <point x="7" y="248" type="line"/>
      <point x="45" y="248" type="line"/>
    </contour>
    <contour>
      <point x="248" y="352" type="line"/>
      <point x="329" y="387" type="line"/>
      <point x="312" y="398" type="line"/>
      <point x="230" y="362" type="line"/>
    </contour>
    <contour>
      <point x="331" y="248" type="line"/>
      <point x="331" y="398" type="line"/>
      <point x="312" y="398" type="line"/>
      <point x="312" y="248" type="line"/>
    </contour>
    <contour>
      <point x="248" y="363" type="line"/>
      <point x="230" y="353" type="line"/>
      <point x="312" y="248" type="line"/>
      <point x="329" y="259" type="line"/>
    </contour>
    <contour>
      <point x="255" y="398" type="line"/>
      <point x="245" y="377" type="line"/>
      <point x="329" y="377" type="line"/>
      <point x="329" y="398" type="line"/>
    </contour>
    <contour>
      <point x="133" y="366" type="line"/>
      <point x="133" y="349" type="line"/>
      <point x="250" y="349" type="line"/>
      <point x="250" y="366" type="line"/>
    </contour>
    <contour>
      <point x="250" y="269" type="line"/>
      <point x="250" y="248" type="line"/>
      <point x="329" y="248" type="line"/>
      <point x="329" y="269" type="line"/>
    </contour>
    <contour>
      <point x="129" y="352" type="line"/>
      <point x="141" y="364" type="line"/>
      <point x="45" y="398" type="line"/>
      <point x="29" y="385" type="line"/>
    </contour>
    <contour>
      <point x="129" y="363" type="line"/>
      <point x="29" y="261" type="line"/>
      <point x="45" y="248" type="line"/>
      <point x="141" y="351" type="line"/>
    </contour>
    <contour>
      <point x="33" y="50" type="line"/>
      <point x="52" y="50" type="line"/>
      <point x="52" y="263" type="line"/>
      <point x="33" y="263" type="line"/>
    </contour>
    <contour>
      <point x="146" y="350" type="line"/>
      <point x="277" y="385" type="line"/>
      <point x="261" y="398" type="line"/>
      <point x="133" y="364" type="line"/>
    </contour>
    <contour>
      <point x="146" y="365" type="line"/>
      <point x="133" y="351" type="line"/>
      <point x="253" y="250" type="line"/>
      <point x="269" y="263" type="line"/>
    </contour>
    <contour>
      <point x="250" y="227" type="line"/>
      <point x="270" y="227" type="line"/>
      <point x="270" y="259" type="line"/>
      <point x="250" y="259" type="line"/>
    </contour>
  </outline>
</glyph>
